<svg class="icon" style="width: 1em;height: 1em;vertical-align: middle;fill: currentColor;overflow: hidden;" viewBox="0 0 1024 1024" version="1.1" xmlns="http://www.w3.org/2000/svg" p-id="5661"><path d="M640 0H128a64 64 0 0 0-64 64v896a64 64 0 0 0 64 64h768a64 64 0 0 0 64-64V320L640 0z" fill="#EAEAEA" p-id="5662"></path><path d="M640 0v256a64 64 0 0 0 64 64h256L640 0z" fill="#434854" p-id="5663"></path><path d="M704 320l256 256v-256z" fill="" p-id="5664"></path><path d="M224 256h256a32 32 0 1 0 0-64H224a32 32 0 1 0 0 64zM224 384h256a32 32 0 1 0 0-64H224a32 32 0 1 0 0 64zM224 512h576a32 32 0 1 0 0-64H224a32 32 0 1 0 0 64zM800 576H224a32 32 0 1 0 0 64h576a32 32 0 1 0 0-64zM800 704H224a32 32 0 1 0 0 64h576a32 32 0 1 0 0-64zM800 832H224a32 32 0 1 0 0 64h576a32 32 0 1 0 0-64z" fill="" p-id="5665"></path></svg>