<svg class="icon"
    style="width: 1em;height: 1em;vertical-align: middle;fill: currentColor;overflow: hidden;"
    viewBox="0 0 1024 1024" version="1.1" xmlns="http://www.w3.org/2000/svg" p-id="4232">
    <path
        d="M896 0H128C57.6 0 0 57.6 0 128v768c0 70.4 57.6 128 128 128h768c70.4 0 128-57.6 128-128V128c0-70.4-57.6-128-128-128z m76.8 896c0 42.24-34.56 76.8-76.8 76.8H128c-42.24 0-76.8-34.56-76.8-76.8V128c0-42.24 34.56-76.8 76.8-76.8h768c42.24 0 76.8 34.56 76.8 76.8v768zM428.8 876.8s112.64-211.456 242.432-394.496C771.328 341.248 896 217.6 896 217.6l-26.112-70.4S721.92 247.296 602.112 369.92c-121.6 124.416-215.296 272.128-215.296 272.128L203.008 474.624 128 552.448 428.8 876.8z"
        p-id="4233"></path>
</svg>