<svg xmlns="http://www.w3.org/2000/svg" width="20" height="20" viewBox="0 0 20 20">
    <g fill="none" fill-rule="evenodd" stroke-linecap="round">
        <g stroke="#555" stroke-width="1.5">
            <g>
                <g>
                    <path d="M7.665 15.07l-1.819-.002c-1.486 0-2.692-1.228-2.692-2.744v-.192c0-1.515 1.206-2.744 2.692-2.744h3.846c1.487 0 2.692 1.229 2.692 2.744v.192" transform="translate(-1000 -4581) translate(995 4576) translate(5 5) scale(1 -1) rotate(45 37.293 0)"/>
                    <path d="M12.326 4.934l1.822.002c1.487 0 2.693 1.228 2.693 2.744v.192c0 1.515-1.206 2.744-2.693 2.744h-3.845c-1.487 0-2.692-1.229-2.692-2.744V7.68" transform="translate(-1000 -4581) translate(995 4576) translate(5 5) scale(1 -1) rotate(45 30.996 0)"/>
                </g>
            </g>
        </g>
    </g>
</svg>
