<svg class="icon" style="width: 1em;height: 1em;vertical-align: middle;fill: currentColor;overflow: hidden;" viewBox="0 0 1024 1024" version="1.1" xmlns="http://www.w3.org/2000/svg" p-id="6617"><path d="M265.073082 375.756365c-12.269596 11.758362-12.269596 31.696455-0.511233 43.966051l0.511233 0.511234L485.925803 638.018972c0.511233 1.022466 1.533699 2.556166 2.044933 3.578632 12.780829 12.269596 33.230155 12.269596 46.010983 0 1.022466-1.022466 1.533699-2.044933 2.044933-3.578632L756.879373 420.23365c12.269596-11.758362 12.269596-31.696455 1.022466-44.477285 0 0.511233 0 0.511233 0 0" fill="" p-id="6618"></path><path d="M895.423557 1.533699H127.551365C58.023656 1.533699 0.25431 59.303045 0.25431 128.830754v767.360958c0 70.038942 57.769346 127.808288 127.297055 127.808288H894.912323c70.038942 0 127.297054-57.769346 127.297055-127.297054V128.830754C1022.720611 59.303045 964.951265 1.533699 895.423557 1.533699zM997.158953 877.276086c0 66.46031-54.701947 121.162257-121.162256 121.162256H146.978225c-66.46031 0-121.162257-54.701947-121.162257-121.162256V148.768847C25.815968 81.797304 80.517915 27.60659 146.978225 27.60659h729.018472c66.46031 0 121.162257 54.701947 121.162256 121.162257v728.507239z" fill="" p-id="6619"></path></svg>