<svg class="icon" style="width: 1em;height: 1em;vertical-align: middle;fill: currentColor;overflow: hidden;" viewBox="0 0 1024 1024" version="1.1" xmlns="http://www.w3.org/2000/svg" p-id="15373"><path d="M672.914286 738.742857l106.057143 102.4 171.885714-171.885714-102.4-98.742857zM640 837.485714c-7.314286 18.285714 3.657143 40.228571 25.6 43.885715 7.314286 3.657143 14.628571 3.657143 21.942857 0l80.457143-18.285715-109.714286-106.057143-18.285714 80.457143zM917.942857 497.371429L866.742857 548.571429l102.4 102.4 54.857143-51.2zM288.914286 749.714286h-256V266.971429c0-7.314286-7.314286-14.628571-14.628572-14.628572s-14.628571 7.314286-14.628571 14.628572v497.371428c0 7.314286 7.314286 14.628571 14.628571 14.628572h270.628572c58.514286-3.657143 117.028571 10.971429 164.571428 40.228571 3.657143 3.657143 7.314286 3.657143 10.971429 3.657143 3.657143 0 7.314286 0 10.971428-3.657143 36.571429-21.942857 76.8-32.914286 117.028572-36.571429l7.314286-32.914285c-47.542857 3.657143-95.085714 18.285714-131.657143 40.228571-62.171429-29.257143-120.685714-43.885714-179.2-40.228571zM903.314286 252.342857c-7.314286 0-14.628571 7.314286-14.628572 14.628572v179.2l32.914286-29.257143V263.314286c-3.657143-7.314286-10.971429-10.971429-18.285714-10.971429z" fill="#666666" p-id="15374"></path><path d="M618.057143 698.514286l248.685714-230.4V160.914286c0-10.971429-7.314286-18.285714-18.285714-18.285715h-201.142857c-51.2-3.657143-102.4 7.314286-146.285715 32.914286-10.971429 7.314286-18.285714 21.942857-18.285714 32.914286V731.428571c0 10.971429 7.314286 18.285714 18.285714 18.285715 32.914286-14.628571 69.485714-21.942857 109.714286-29.257143l7.314286-21.942857zM588.8 256l160.914286-7.314286c14.628571 0 29.257143 10.971429 29.257143 25.6v10.971429c0 14.628571-10.971429 29.257143-25.6 29.257143l-160.914286 7.314285c-14.628571 0-29.257143-10.971429-29.257143-25.6v-14.628571c0-14.628571 10.971429-25.6 25.6-25.6z m-25.6 175.542857v-14.628571c0-14.628571 10.971429-29.257143 29.257143-29.257143l160.914286-7.314286c14.628571 0 29.257143 10.971429 29.257142 25.6v14.628572c0 14.628571-10.971429 29.257143-25.6 29.257142l-160.914285 7.314286c-18.285714 0-32.914286-10.971429-32.914286-25.6zM274.285714 325.485714c-3.657143-7.314286-7.314286-18.285714-10.971428-25.6l-10.971429-10.971428-3.657143-3.657143c-3.657143 0-3.657143 0-7.314285 3.657143-3.657143 0-3.657143 3.657143-3.657143 7.314285-7.314286 7.314286-10.971429 18.285714-14.628572 29.257143 10.971429 3.657143 18.285714 7.314286 29.257143 10.971429l21.942857-10.971429zM281.6 347.428571c0 3.657143 0 3.657143 0 0zM215.771429 343.771429v7.314285l7.314285-3.657143-7.314285-3.657142zM245.028571 460.8c-7.314286 3.657143-14.628571 7.314286-21.942857 7.314286 3.657143 7.314286 7.314286 18.285714 10.971429 25.6 3.657143 3.657143 3.657143 7.314286 10.971428 10.971428 3.657143 0 3.657143 3.657143 7.314286 3.657143s3.657143 0 7.314286-3.657143l7.314286-7.314285c3.657143-7.314286 7.314286-18.285714 10.971428-25.6l-32.914286-10.971429zM219.428571 446.171429zM193.828571 427.885714c-7.314286-7.314286-14.628571-10.971429-21.942857-18.285714-7.314286 7.314286-10.971429 14.628571-14.628571 21.942857-3.657143 3.657143-7.314286 7.314286-7.314286 10.971429 0 3.657143 0 7.314286 3.657143 10.971428l3.657143 3.657143h14.628571c7.314286 0 14.628571 0 21.942857-3.657143 3.657143-7.314286 0-14.628571 0-25.6zM193.828571 365.714286c0-7.314286 3.657143-18.285714 3.657143-25.6-7.314286-3.657143-14.628571-3.657143-21.942857-3.657143h-7.314286c-3.657143 0-7.314286 0-10.971428 3.657143-3.657143 0-3.657143 3.657143-3.657143 7.314285v10.971429c3.657143 10.971429 10.971429 18.285714 18.285714 29.257143 3.657143-10.971429 10.971429-14.628571 21.942857-21.942857zM190.171429 391.314286l3.657142 7.314285-3.657142-7.314285z" fill="#666666" p-id="15375"></path><path d="M424.228571 171.885714c-47.542857-21.942857-98.742857-32.914286-146.285714-32.914285H73.142857c-10.971429 3.657143-18.285714 10.971429-18.285714 18.285714v541.257143c0 10.971429 7.314286 18.285714 18.285714 18.285714h201.142857c51.2 3.657143 102.4 14.628571 149.942857 32.914286 10.971429 0 18.285714-7.314286 18.285715-18.285715V208.457143c0-14.628571-7.314286-25.6-18.285715-36.571429z m-80.457142 226.742857c7.314286 7.314286 10.971429 14.628571 14.628571 21.942858 3.657143 7.314286 7.314286 18.285714 7.314286 29.257142 0 10.971429-7.314286 21.942857-14.628572 25.6-7.314286 3.657143-14.628571 7.314286-21.942857 7.314286h-3.657143c-10.971429 0-18.285714 0-29.257143-3.657143-3.657143 10.971429-7.314286 18.285714-10.971428 29.257143-3.657143 3.657143-7.314286 10.971429-10.971429 14.628572-3.657143 3.657143-10.971429 7.314286-18.285714 10.971428h-14.628571c-7.314286-3.657143-14.628571-7.314286-18.285715-14.628571-7.314286-10.971429-14.628571-21.942857-18.285714-36.571429-7.314286 3.657143-18.285714 3.657143-25.6 3.657143h-18.285714c-7.314286 0-14.628571-3.657143-21.942857-7.314286-10.971429-7.314286-14.628571-18.285714-10.971429-29.257143 0-10.971429 7.314286-21.942857 14.628571-32.914285 3.657143-14.628571 7.314286-18.285714 10.971429-21.942857-7.314286-7.314286-14.628571-14.628571-18.285714-25.6-3.657143-3.657143-3.657143-10.971429-3.657143-18.285715-3.657143-14.628571 3.657143-25.6 14.628571-32.914285 7.314286-3.657143 18.285714-3.657143 25.6-3.657143 7.314286 0 18.285714 0 25.6 3.657143 3.657143-10.971429 7.314286-18.285714 10.971429-29.257143 3.657143-7.314286 7.314286-10.971429 14.628571-18.285715 7.314286-3.657143 10.971429-7.314286 21.942857-7.314285 7.314286 0 14.628571 3.657143 18.285715 7.314285 7.314286 7.314286 14.628571 14.628571 18.285714 21.942858 3.657143 7.314286 7.314286 18.285714 10.971429 25.6 7.314286-3.657143 18.285714-3.657143 25.6-3.657143h3.657142c10.971429 0 18.285714 3.657143 25.6 7.314285 10.971429 3.657143 14.628571 10.971429 18.285715 21.942858 0 7.314286 0 14.628571-3.657143 18.285714-3.657143 10.971429-10.971429 18.285714-18.285714 29.257143l-3.657143 3.657143 3.657143 3.657142zM307.2 394.971429v7.314285-7.314285z" fill="#666666" p-id="15376"></path><path d="M343.771429 343.771429c-7.314286 0-10.971429-3.657143-18.285715-3.657143h-3.657143c-7.314286 0-14.628571 0-21.942857 3.657143 0 7.314286 3.657143 14.628571 3.657143 25.6 7.314286 7.314286 14.628571 10.971429 21.942857 18.285714 3.657143-7.314286 10.971429-10.971429 14.628572-18.285714 3.657143-3.657143 3.657143-7.314286 3.657143-14.628572 3.657143-3.657143 3.657143-10.971429 0-10.971428zM307.2 431.542857c0 10.971429 0 18.285714-3.657143 29.257143H329.142857c3.657143 0 7.314286 0 10.971429-3.657143 3.657143 0 3.657143-3.657143 3.657143-7.314286v-7.314285c-3.657143-10.971429-10.971429-18.285714-18.285715-29.257143-3.657143 7.314286-10.971429 10.971429-18.285714 18.285714zM281.6 449.828571v-7.314285l-7.314286 3.657143 7.314286 3.657142zM299.885714 343.771429zM248.685714 358.4c-10.971429 7.314286-25.6 10.971429-36.571428 18.285714v40.228572c10.971429 7.314286 21.942857 14.628571 32.914285 18.285714 10.971429-3.657143 25.6-10.971429 36.571429-18.285714v-18.285715-21.942857c-7.314286-3.657143-18.285714-10.971429-32.914286-18.285714z m3.657143 58.514286c-10.971429 0-14.628571-3.657143-18.285714-7.314286-3.657143-3.657143-7.314286-10.971429-7.314286-14.628571 0-10.971429 10.971429-21.942857 21.942857-21.942858 7.314286 0 10.971429 3.657143 18.285715 7.314286 3.657143 3.657143 7.314286 10.971429 7.314285 14.628572-3.657143 10.971429-10.971429 21.942857-21.942857 21.942857z" fill="#666666" p-id="15377"></path></svg>