<svg class="icon" style="width: 1em;height: 1em;vertical-align: middle;fill: currentColor;overflow: hidden;" viewBox="0 0 1024 1024" version="1.1" xmlns="http://www.w3.org/2000/svg" p-id="6445"><path d="M0 0h1024v1024H0z" fill="#FFFFFF" opacity=".01" p-id="6446"></path><path d="M512 981.333333C251.733333 981.333333 42.666667 772.266667 42.666667 512S251.733333 42.666667 512 42.666667s469.333333 209.066667 469.333333 469.333333-209.066667 469.333333-469.333333 469.333333z m0-853.333333c-213.333333 0-384 170.666667-384 384s170.666667 384 384 384 384-170.666667 384-384-170.666667-384-384-384z" fill="#36749B" p-id="6447"></path><path d="M512 533.333333c-81.066667 0-149.333333-68.266667-149.333333-149.333333s68.266667-149.333333 149.333333-149.333333 149.333333 68.266667 149.333333 149.333333-68.266667 149.333333-149.333333 149.333333z m0-213.333333c-34.133333 0-64 29.866667-64 64s29.866667 64 64 64 64-29.866667 64-64-29.866667-64-64-64zM213.333333 861.866667c-25.6 0-42.666667-21.333333-42.666666-46.933334 8.533333-132.266667 119.466667-238.933333 256-238.933333h170.666666c132.266667 0 247.466667 106.666667 256 238.933333 0 25.6-17.066667 42.666667-38.4 46.933334-21.333333 0-42.666667-17.066667-46.933333-38.4-4.266667-89.6-81.066667-157.866667-170.666667-157.866667h-170.666666c-89.6 0-166.4 68.266667-170.666667 157.866667 0 21.333333-21.333333 38.4-42.666667 38.4z" fill="#36749B" p-id="6448"></path></svg>