<svg class="icon" style="width: 1em;height: 1em;vertical-align: middle;fill: currentColor;overflow: hidden;" viewBox="0 0 1024 1024" version="1.1" xmlns="http://www.w3.org/2000/svg" p-id="6710"><path d="M699.726852 526.311888c5.989214 17.812077-2.916825 36.868667-19.989974 42.624534-17.034258 5.678086-35.624155-4.083555-41.691151-21.895632l-37.37425-110.56711c-5.950323-17.812077 2.955716-36.946449 19.951083-42.741208 17.034258-5.678086 35.701937 4.083555 41.730042 21.895633l37.37425 110.683783zM540.001519 642.479301c18.31766 3.733536 30.37387 21.04003 26.757007 38.579871-3.577972 17.617622-21.234485 28.857121-39.552145 25.201367l-113.756172-22.945689c-18.31766-3.733536-30.296088-20.962248-26.757007-38.579871 3.577972-17.53984 21.273376-28.857121 39.629928-25.123585l113.678389 22.867907zM357.097152 488.509837a32.473984 32.473984 0 1 1-47.680365-44.257957l75.837448-81.826662a32.512875 32.512875 0 0 1 47.680364 44.296848l-75.837447 81.787771zM939.606532 750.324041a183.487733 183.487733 0 1 1-367.053247 0 183.448842 183.448842 0 0 1 183.526624-183.448842 183.487733 183.487733 0 0 1 183.526623 183.448842m-173.414963-142.10771c24.15131-5.678086-50.130498 2.139005-74.087353 13.378504a145.6079 145.6079 0 0 0-83.148956 142.49662c1.283403 17.228712 5.678086 34.496316 13.495177 51.063881 0-0.038891-19.795518-168.748044 143.741132-206.939005" fill="#47A9A8" p-id="6711"></path><path d="M704.977136 242.796506a152.724953 152.724953 0 1 1-305.488796 0.116673 152.724953 152.724953 0 0 1 305.488796-0.116673M560.65264 124.451196c20.067755-4.66692-41.730042 1.711204-61.681125 11.161717a121.184352 121.184352 0 0 0-57.947588 161.125408c0-0.038891-16.450893-140.396506 119.628713-172.287125M374.403646 621.050361a126.201291 126.201291 0 0 1-126.123509 126.1624c-69.69267 0-126.1624-56.586403-126.162401-126.1624s56.46973-126.1624 126.162401-126.1624a126.201291 126.201291 0 0 1 126.123509 126.1624m-119.16202-97.694189c16.528675-3.966882-34.457425 1.438967-50.9861 9.139384a100.144322 100.144322 0 0 0-47.835929 133.046108s-13.572959-115.895177 98.822029-142.185492" fill="#47A9A8" p-id="6712"></path></svg>