<svg class="icon" style="width: 1.0185546875em;height: 1em;vertical-align: middle;fill: currentColor;overflow: hidden;" viewBox="0 0 1043 1024" version="1.1" xmlns="http://www.w3.org/2000/svg" p-id="11787"><path d="M1028.218727 110.453933l15.724344 9.204494L521.971536 1024 0 119.658427l16.107865-9.204494 505.863671 876.728089z" fill="#F2F2F2" p-id="11788"></path><path d="M1012.110861 101.249438l16.107866 9.204495-506.247191 876.728089L16.107865 110.453933l15.724345-9.204495 490.139326 849.114607z" fill="" p-id="11789"></path><path d="M996.386517 92.044944l15.724344 9.204494-490.139325 849.114607L31.83221 101.249438l16.107865-9.204494 474.031461 821.501123z" fill="#F2F2F2" p-id="11790"></path><path d="M980.278652 82.840449l16.107865 9.204495-474.414981 821.501123L47.940075 92.044944l15.724344-9.204495 458.307117 793.887641z" fill="" p-id="11791"></path><path d="M964.554307 73.635955l15.724345 9.204494-458.307116 793.887641-458.307117-793.887641 16.107866-9.204494L521.971536 839.910112z" fill="#F2F2F2" p-id="11792"></path><path d="M948.446442 64.431461l16.107865 9.204494L521.971536 839.910112 79.772285 73.635955l15.724344-9.204494 426.474907 738.660674z" fill="" p-id="11793"></path><path d="M932.338577 55.226966l16.107865 9.204495-426.474906 738.660674L95.496629 64.431461l16.107865-9.204495 410.367042 711.047191z" fill="#F2F2F2" p-id="11794"></path><path d="M916.614232 46.022472l15.724345 9.204494-410.367041 711.047191-410.367042-711.047191 16.107866-9.204494 394.259176 683.433708z" fill="" p-id="11795"></path><path d="M900.506367 36.817978L916.614232 46.022472 521.971536 729.45618 127.71236 46.022472l15.724344-9.204494 378.534832 655.820224z" fill="#F2F2F2" p-id="11796"></path><path d="M884.782022 27.613483l15.724345 9.204495-378.534831 655.820224-378.534832-655.820224 16.107865-9.204495L521.971536 655.820225z" fill="" p-id="11797"></path><path d="M868.674157 18.408989l16.107865 9.204494L521.971536 655.820225 159.544569 27.613483l15.724345-9.204494 346.702622 600.593258z" fill="#F2F2F2" p-id="11798"></path><path d="M836.841948 0l16.107865 9.204494-330.978277 572.979776L191.376779 9.204494 207.101124 0l314.870412 545.366292z" fill="#F2F2F2" p-id="11799"></path><path d="M852.949813 9.204494l15.724344 9.204495-346.702621 600.593258L175.268914 18.408989l16.107865-9.204495 330.594757 572.979776z" fill="" p-id="11800"></path></svg>