<svg class="icon" style="width: 1.314453125em;height: 1em;vertical-align: middle;fill: currentColor;overflow: hidden;" viewBox="0 0 1346 1024" version="1.1" xmlns="http://www.w3.org/2000/svg" p-id="8730"><path d="M1225.007407 0H102.4C45.511111 0 0 45.511111 0 102.4v640.948148c0 56.888889 45.511111 102.4 102.4 102.4h138.42963c13.274074 0 24.651852 3.792593 34.133333 13.274074L455.111111 1024l183.940741-164.977778c9.481481-7.585185 20.859259-13.274074 34.133333-13.274074h551.822222c56.888889 0 102.4-45.511111 102.4-102.4V102.4c0-56.888889-45.511111-102.4-102.4-102.4zM1251.555556 697.837037c0 28.444444-22.755556 53.096296-53.096297 53.096296H658.014815c-13.274074 0-24.651852 3.792593-34.133334 13.274074L455.111111 910.222222l-164.977778-146.014815c-9.481481-9.481481-22.755556-13.274074-34.133333-13.274074H128.948148c-28.444444 0-53.096296-22.755556-53.096296-53.096296v-568.888889C75.851852 98.607407 98.607407 75.851852 128.948148 75.851852h1071.407408C1228.8 75.851852 1251.555556 98.607407 1251.555556 128.948148v568.888889z" fill="#727272" p-id="8731"></path><path d="M1137.777778 303.407407c0 9.481481-3.792593 18.962963-11.377778 26.548149-7.585185 7.585185-17.066667 11.377778-26.548148 11.377777H227.555556c-20.859259 0-37.925926-17.066667-37.925926-37.925926 0-9.481481 3.792593-18.962963 11.377777-26.548148 7.585185-7.585185 17.066667-11.377778 26.548149-11.377778h872.296296c20.859259 0 37.925926 17.066667 37.925926 37.925926zM796.444444 530.962963c0 9.481481-3.792593 18.962963-11.377777 26.548148-7.585185 7.585185-17.066667 11.377778-26.548148 11.377778H227.555556c-20.859259 0-37.925926-17.066667-37.925926-37.925926 0-9.481481 3.792593-18.962963 11.377777-26.548148 7.585185-7.585185 17.066667-11.377778 26.548149-11.377778h530.962963c20.859259 0 37.925926 17.066667 37.925925 37.925926z" fill="#727272" p-id="8732"></path></svg>