<svg class="icon" style="width: 1em;height: 1em;vertical-align: middle;fill: currentColor;overflow: hidden;" viewBox="0 0 1024 1024" version="1.1" xmlns="http://www.w3.org/2000/svg" p-id="3499"><path d="M512 512m-512 0a512 512 0 1 0 1024 0 512 512 0 1 0-1024 0Z" fill="#BDC3C7" p-id="3500"></path><path d="M250.311111 250.311111h523.377778v108.999111H250.311111z" fill="#93CFEF" p-id="3501"></path><path d="M250.311111 657.408h523.377778V773.688889H250.311111z" fill="#6B7082" p-id="3502"></path><path d="M250.311111 359.310222h261.688889v297.984H250.311111z" fill="#D87070" p-id="3503"></path><path d="M512 359.310222h261.688889v297.984H512z" fill="#FABD6B" p-id="3504"></path><path d="M773.688889 785.066667H250.311111a11.377778 11.377778 0 0 1-11.377778-11.377778V250.311111a11.377778 11.377778 0 0 1 11.377778-11.377778h523.377778a11.377778 11.377778 0 0 1 11.377778 11.377778v523.377778a11.377778 11.377778 0 0 1-11.377778 11.377778z m-512-22.755556h500.622222V261.688889H261.688889z" fill="#464C63" p-id="3505"></path><path d="M250.311111 646.030222h523.377778v22.755556H250.311111zM250.311111 340.650667h523.377778v22.755555H250.311111z" fill="#464C63" p-id="3506"></path><path d="M500.622222 359.310222h22.755556v305.265778h-22.755556z" fill="#464C63" p-id="3507"></path></svg>