<svg class="icon" style="width: 1em;height: 1em;vertical-align: middle;fill: currentColor;overflow: hidden;" viewBox="0 0 1024 1024" version="1.1" xmlns="http://www.w3.org/2000/svg" p-id="8439"><path d="M847.448276 706.206897l-70.62069-70.62069 70.62069-70.62069h-282.482759v282.482759l70.62069-70.62069 70.62069 70.62069-176.551725 176.551724h-35.310344l-176.551725-176.551724 70.62069-70.62069 70.62069 70.62069v-282.482759H176.551724l70.62069 70.62069-70.62069 70.62069-176.551724-176.551725v-35.310344l176.551724-176.551725 70.62069 70.62069-70.62069 70.62069h282.482759V176.551724l-70.62069 70.62069-70.62069-70.62069 176.551725-176.551724h35.310344l176.551725 176.551724-70.62069 70.62069-70.62069-70.62069v282.482759h282.482759l-70.62069-70.62069 70.62069-70.62069 176.551724 176.551725v35.310344z" fill="#7dc5eb" p-id="8440"></path><path d="M317.793103 459.034483v105.931034h141.24138v141.24138h105.931034v-141.24138h141.24138v-105.931034h-141.24138V317.793103h-105.931034v141.24138z" fill="#333333" p-id="8441"></path></svg>