<svg class="icon" style="width: 1em;height: 1em;vertical-align: middle;fill: currentColor;overflow: hidden;" viewBox="0 0 1024 1024" version="1.1" xmlns="http://www.w3.org/2000/svg" p-id="6836"><path d="M738.261333 221.738667A320 320 0 0 0 285.738667 674.261333a32 32 0 0 1-45.269334 45.269334A384 384 0 1 1 896 448a32 32 0 0 1-64 0c0-81.92-31.232-163.797333-93.738667-226.261333z m-90.496 90.496a192 192 0 0 0-271.530666 271.530666 32 32 0 1 1-45.226667 45.226667A256 256 0 1 1 768 448a32 32 0 0 1-64 0c0-49.194667-18.773333-98.261333-56.234667-135.765333z m-155.050666 56.064a32 32 0 0 1 34.986666 13.269333l223.061334 337.792a32 32 0 0 1-33.152 48.981333l-89.472-18.346666 44.586666 166.4a32 32 0 0 1-61.866666 16.554666l-44.544-166.357333-68.309334 60.586667a32 32 0 0 1-53.205333-25.856l24.277333-404.053334a32 32 0 0 1 23.637334-29.013333z m34.474666 128.64l-13.866666 231.125333 49.28-43.690667a32 32 0 0 1 27.648-7.424l64.512 13.226667-127.573334-193.237333z" p-id="6837"></path></svg>