<svg class="icon" style="width: 1em;height: 1em;vertical-align: middle;fill: currentColor;overflow: hidden;" viewBox="0 0 1024 1024" version="1.1" xmlns="http://www.w3.org/2000/svg" p-id="4413"><path d="M989.866667 884.053333c0 58.026667-47.786667 105.813333-105.813334 105.813334H139.946667C81.92 989.866667 34.133333 942.08 34.133333 884.053333V139.946667C34.133333 81.92 81.92 34.133333 139.946667 34.133333h740.693333C942.08 34.133333 989.866667 81.92 989.866667 139.946667v744.106666z m-901.12 0c0 27.306667 20.48 47.786667 47.786666 51.2h747.52c27.306667 0 54.613333-54.613333 54.613334-54.613333V139.946667c0-27.306667-20.48-47.786667-47.786667-51.2h-750.933333c-23.893333 0-47.786667 20.48-51.2 47.786666v747.52z m296.96-730.453333c3.413333 3.413333 6.826667 10.24 6.826666 13.653333 0 6.826667-3.413333 10.24-6.826666 13.653334L307.2 262.826667l-3.413333 3.413333c-6.826667 3.413333-20.48 3.413333-27.306667-3.413333L197.973333 180.906667l-3.413333-3.413334c-6.826667-6.826667-6.826667-17.066667 3.413333-23.893333l3.413334-3.413333c6.826667-6.826667 20.48-3.413333 27.306666 3.413333l68.266667 68.266667 64.853333-64.853334 3.413334-3.413333c3.413333-6.826667 13.653333-6.826667 20.48 0z m0 300.373333c3.413333 3.413333 6.826667 10.24 6.826666 13.653334 0 6.826667-3.413333 10.24-6.826666 13.653333L307.2 559.786667l-3.413333 3.413333c-6.826667 6.826667-20.48 3.413333-27.306667-3.413333L197.973333 477.866667h-3.413333c-6.826667-6.826667-3.413333-20.48 3.413333-27.306667l3.413334-3.413333c6.826667-3.413333 17.066667-3.413333 23.893333 3.413333l68.266667 68.266667 64.853333-64.853334 3.413333-3.413333c6.826667-6.826667 17.066667-3.413333 23.893334 3.413333z m0 296.96c3.413333 3.413333 6.826667 10.24 6.826666 13.653334 0 6.826667-3.413333 10.24-6.826666 13.653333L307.2 860.16l-3.413333 3.413333c-6.826667 6.826667-20.48 3.413333-27.306667-3.413333l-81.92-81.92-3.413333-3.413333c-6.826667-6.826667-3.413333-20.48 3.413333-27.306667l3.413333-3.413333c6.826667-6.826667 20.48-3.413333 27.306667 3.413333l68.266667 68.266667 64.853333-64.853334 3.413333-3.413333c6.826667-3.413333 17.066667-3.413333 23.893334 3.413333z m549.546666-368.64H88.746667V327.68h846.506666v54.613333z m0 307.2H88.746667v-54.613333h846.506666v54.613333z" fill="#323232" p-id="4414"></path></svg>