<svg class="icon" style="width: 1em;height: 1em;vertical-align: middle;fill: currentColor;overflow: hidden;"
    viewBox="0 0 1024 1024" version="1.1" xmlns="http://www.w3.org/2000/svg" p-id="3263">
    <path
        d="M853.653 494.08a48 48 0 0 1 67.84 67.84L544.427 939.093a48 48 0 0 1-67.947 0L99.413 561.92a48 48 0 0 1 67.84-67.84l343.254 343.147L853.653 494.08z m0-426.667a48 48 0 0 1 67.84 67.84L544.427 512.427a48 48 0 0 1-67.947 0L99.413 135.253a48 48 0 0 1 67.84-67.84L510.507 410.56 853.653 67.413z"
        p-id="3264"></path>
</svg>