<svg class="icon" style="width: 1em;height: 1em;vertical-align: middle;fill: currentColor;overflow: hidden;"
    viewBox="0 0 1024 1024" version="1.1" xmlns="http://www.w3.org/2000/svg" p-id="6893">
    <path
        d="M512 810.660945a64.002861 64.002861 0 1 1 64.002861-64.002861 64.002861 64.002861 0 0 1-64.002861 64.002861z m0-597.344777a64.002861 64.002861 0 0 1 64.002861 64.002861v298.672388a64.002861 64.002861 0 1 1-127.994278 0v-298.672388a64.002861 64.002861 0 0 1 63.991417-63.991417z m0 725.327612c235.642215 0 426.666667-191.024451 426.666667-426.666667S747.642215 85.333333 512 85.333333 85.333333 276.357785 85.333333 512 276.357785 938.666667 512 938.666667z m0 85.333333C229.233919 1024 0 794.766081 0 512S229.233919 0 512 0s512 229.233919 512 512-229.233919 512-512 512z"
        fill="currentColor" p-id="6894"></path>
</svg>