<svg class="icon" style="width: 1em;height: 1em;vertical-align: middle;fill: currentColor;overflow: hidden;" viewBox="0 0 1024 1024" version="1.1" xmlns="http://www.w3.org/2000/svg" p-id="3775"><path d="M837.063111 56.888889c68.835556 0 125.155556 53.475556 129.706667 121.173333l0.341333 8.874667v291.271111a35.783111 35.783111 0 0 1-71.111111 5.290667l-0.398222-5.290667v-291.271111c0-30.151111-22.812444-55.011556-52.167111-58.197333l-6.371556-0.341334H813.511111v272.896a54.044444 54.044444 0 0 1-47.729778 53.703111l-6.257777 0.341334H255.544889a54.044444 54.044444 0 0 1-53.646222-47.786667l-0.398223-6.257778V128.398222h-14.563555c-30.151111 0-55.011556 22.812444-58.197333 52.167111l-0.341334 6.371556v650.126222c0 30.151111 22.812444 55.011556 52.167111 58.197333l6.371556 0.341334h291.043555a35.783111 35.783111 0 0 1 5.290667 71.111111L477.980444 967.111111H186.936889c-68.835556 0-125.155556-53.475556-129.706667-121.173333L56.888889 837.12V186.936889c0-68.835556 53.475556-125.155556 121.173333-129.706667L186.88 56.888889h650.126222z m-197.973333 524.686222l129.308444 129.308445 129.308445-129.308445a40.618667 40.618667 0 0 1 58.481777 56.32l-0.967111 1.024-129.308444 129.308445 129.308444 129.365333a40.618667 40.618667 0 0 1 0 57.457778v0.170666a40.618667 40.618667 0 0 1-57.457777 0l-129.308445-129.365333-129.365333 129.308444a40.618667 40.618667 0 0 1-57.457778-57.457777l129.251556-129.308445-129.308445-129.308444a40.675556 40.675556 0 1 1 57.514667-57.457778zM739.555556 128.398222H275.456v252.928H739.555556V128.398222z m-75.776 51.655111a36.977778 36.977778 0 0 1 36.579555 31.516445l0.398222 5.461333v91.022222a36.977778 36.977778 0 0 1-73.557333 5.461334l-0.398222-5.461334v-91.022222a36.977778 36.977778 0 0 1 36.977778-36.977778z" fill="#9FADBE" p-id="3776"></path></svg>