<svg class="icon" style="width: 1em;height: 1em;vertical-align: middle;fill: currentColor;overflow: hidden;" viewBox="0 0 1024 1024" version="1.1" xmlns="http://www.w3.org/2000/svg" p-id="3456"><path d="M512 512m-170.666667 0a170.666667 170.666667 0 1 0 341.333334 0 170.666667 170.666667 0 1 0-341.333334 0ZM554.666667 173.610667V85.333333h-85.333334v88.277334A341.76 341.76 0 0 0 173.610667 469.333333H85.333333v85.333334h88.277334A341.674667 341.674667 0 0 0 469.333333 850.389333V938.666667h85.333334v-88.277334A341.632 341.632 0 0 0 850.389333 554.666667H938.666667v-85.333334h-88.277334A341.674667 341.674667 0 0 0 554.666667 173.610667zM512 768c-141.184 0-256-114.816-256-256s114.816-256 256-256 256 114.816 256 256-114.816 256-256 256z" p-id="3457"></path></svg>