<svg class="icon" style="fill: currentColor; width: 1em; height: 1em; vertical-align: middle; overflow: hidden"
    viewBox="0 0 1024 1024" version="1.1" xmlns="http://www.w3.org/2000/svg" p-id="2047">
    <path
        d="M 512 949.3 C 270.9 949.3 74.7 753.1 74.7 512 S 270.9 74.7 512 74.7 S 949.3 270.9 949.3 512 S 753.1 949.3 512 949.3 z m -151.5 -292.3 c 10.7 10.7 29.9 12.8 42.7 2.1 l 2.1 -2.1 l 104.5 -102.4 l 102.4 102.4 l 2.1 2.1 c 12.8 10.7 32 8.5 42.7 -2.1 c 12.8 -12.8 12.8 -32 0 -44.8 L 554.7 509.9 l 102.4 -102.4 l 2.1 -2.1 c 10.7 -12.8 8.5 -32 -2.1 -42.7 s -29.9 -12.8 -42.7 -2.1 l -2.1 2.1 l -102.4 102.4 l -102.4 -102.4 l -2.1 -2.1 c -12.8 -10.7 -32 -8.5 -42.7 2.1 c -12.8 12.8 -12.8 32 0 44.8 l 102.4 102.4 l -102.4 102.4 l -2.1 2.1 c -10.7 12.8 -10.7 32 0 42.7 z"
        fill="currentColor" p-id="2048">
    </path>
</svg>