<svg id="icon-no-data" viewBox="0 0 224 156">
    <path style="fill:#EDF2FF;" d="M203.9,132.2c-6.3,4.3-13.3,7.7-20.6,9.8c-4.5,1.4-9.1,2.3-13.8,2.7c-8.4,1-17,0-24.9-2.9
        c-25.9-9.9-54.6,12.3-80.6,14c-0.4,0-0.8,0-1.2,0.1c-6.7,0.4-13.4-1-19.3-4.3c-5.1-2.9-9.9-6.4-14.2-10.5
        C4.9,118.5-12.4,83.3,11.3,49C39.5,8.4,52.2,15,67.6,20.3s22.5,8.2,50,6.8s29.9-3.7,58.4-12.2s39.4,38.7,47.3,75.8
        C226.8,107.9,217.8,122.5,203.9,132.2z"></path>
    <polygon style="fill:#D4DFFF;" points="76,75 91,86 61,86 "></polygon>
    <rect x="64" y="86" style="fill:#D4DFFF;" width="24" height="15"></rect>
    <rect x="68" y="89" style="fill:#DFE8FF;" width="5" height="5"></rect>
    <rect x="79" y="89" style="fill:#DFE8FF;" width="5" height="5"></rect>
    <path style="fill:#DFE8FF;" d="M111.5,96.7c-41.6,0-78.3,9.1-100.2,23c5,7.9,11.2,15.2,18,21.5c4.3,4.1,9.1,7.6,14.2,10.5
        c5.9,3.2,12.6,4.7,19.3,4.3c0.4-0.1,0.8-0.1,1.2-0.1c25.9-1.7,54.6-23.9,80.6-14c8,2.9,16.5,3.9,25,2.9c4.7-0.4,9.3-1.3,13.8-2.7
        c7.4-2.2,14.3-5.5,20.6-9.8c4.3-3,8.1-6.4,11.2-10.3C193.7,106.8,155.3,96.7,111.5,96.7z"></path>
    <path style="fill:#DFE8FF;" d="M181,100.4V112h-2v-11.6c-2.8-0.6-5-3.4-5-6.9c0-3.9,2.7-7,6-7s6,3.1,6,7
        C186,97,183.8,99.9,181,100.4z"></path>
    <path style="fill:#DFE8FF;"
        d="M47,101.8v5.2h-1v-5c-2.2,0-4-2.2-4-5s1.8-5,4-5s4,2.2,4,5C50.1,99.1,48.9,101,47,101.8z"></path>
    <g>
        <path style="fill:#BACCFF;"
            d="M91,126.7L91,126.7l18,0.1c0,1.2-4,2.2-9,2.2S91,128,91,126.7L91,126.7L95.1,42h9.8l4.1,84.7H91z"></path>
        <polygon style="fill:#CCDAFF;" points="97,36.5 99.4,0.5 101.6,0.5 104,36.5 	"></polygon>
        <polygon style="fill:#CCDAFF;" points="102.6,36 135,57.9 133.8,60 99,42.4 	"></polygon>
        <polygon style="fill:#CCDAFF;" points="102,42.4 67.2,60 66,57.9 98.4,36 	"></polygon>
        <circle style="fill:#BACCFF;" cx="100" cy="39" r="6"></circle>
    </g>
    <g>
        <path style="fill:#D4DFFF;" d="M129,118.9V129h-2v-10.1c-3.4-0.6-6-4.1-6-8.4c0-4.7,3.1-8.5,7-8.5c3.9,0,7,3.8,7,8.5
            C135,114.8,132.4,118.3,129,118.9z"></path>
        <polygon style="fill:#DFE8FF;" points="141,59 146,59 148,105 139,105 	"></polygon>
        <polygon style="fill:#D4DFFF;" points="142.2,55.3 143.4,35 144.6,35 145.8,55.3 	"></polygon>
        <polygon style="fill:#D4DFFF;" points="144.8,54.1 163,66.2 162.3,67.3 142.8,57.6 	"></polygon>
        <polygon style="fill:#D4DFFF;" points="145.2,57.6 125.7,67.3 125,66.2 143.2,54.1 	"></polygon>
        <ellipse style="fill:#CCDAFF;" cx="143.9" cy="57.1" rx="3.6" ry="3.6"></ellipse>
    </g>
</svg>