<svg class="icon" style="width: 1em;height: 1em;vertical-align: middle;fill: currentColor;overflow: hidden;" viewBox="0 0 1024 1024" version="1.1" xmlns="http://www.w3.org/2000/svg" p-id="3599"><path d="M951.1 950.5c-11.5 11.5-32.1 14.1-43.6 2.6 0 0-178.7-180.1-212.7-212.3-0.2 0.3-5.9 5.1-5.9 5.1-66 53.6-150 86.5-241.6 86.5-212 0-383.8-172.7-383.8-384.9S235.3 63.4 447.3 63.4s384.8 172 384.8 384.1c0 94.5-35.3 180.7-91.9 247.6 0.3 0.9 212.5 211.5 212.5 211.5 11.5 11.6 9.9 32.4-1.6 43.9zM447.3 128.3c-174.7 0-319 144.4-319 319.2s144.3 320.9 319 320.9 321.3-146.1 321.3-320.9S622 128.3 447.3 128.3z" fill="#BBBBBB" p-id="3600"></path></svg>