<svg class="icon" style="width: 1em;height: 1em;vertical-align: middle;fill: currentColor;overflow: hidden;" viewBox="0 0 1024 1024" version="1.1" xmlns="http://www.w3.org/2000/svg" p-id="3654"><path d="M672 407.466667c-29.866667-87.466667-115.2-151.466667-213.333333-151.466667s-183.466667 64-213.333334 151.466667c-115.2 10.666667-202.666667 106.666667-202.666666 221.866666C42.666667 753.066667 145.066667 853.333333 268.8 853.333333h377.6C772.266667 853.333333 874.666667 753.066667 874.666667 629.333333c0-115.2-87.466667-211.2-202.666667-221.866666zM648.533333 810.666667H268.8C168.533333 810.666667 85.333333 729.6 85.333333 629.333333c0-91.733333 70.4-170.666667 164.266667-179.2 17.066667-2.133333 29.866667-12.8 36.266667-27.733333 25.6-72.533333 96-121.6 174.933333-121.6s149.333333 49.066667 174.933333 121.6c6.4 14.933333 19.2 25.6 36.266667 27.733333 93.866667 10.666667 164.266667 87.466667 164.266667 179.2-4.266667 100.266667-87.466667 181.333333-187.733334 181.333334zM776.533333 322.133333C742.4 230.4 652.8 170.666667 554.666667 170.666667c-19.2 0-36.266667 2.133333-53.333334 6.4-36.266667 8.533333-70.4 25.6-100.266666 49.066666-4.266667 4.266667-4.266667 10.666667-2.133334 14.933334 4.266667 4.266667 10.666667 4.266667 14.933334 2.133333 25.6-21.333333 57.6-38.4 91.733333-44.8 14.933333-4.266667 32-6.4 49.066667-6.4 91.733333 0 174.933333 57.6 204.8 142.933333 2.133333 4.266667 4.266667 6.4 8.533333 6.4 108.8 12.8 192 102.4 192 211.2 0 64-29.866667 123.733333-78.933333 164.266667-4.266667 4.266667-4.266667 10.666667-2.133334 14.933333 2.133333 2.133333 4.266667 4.266667 8.533334 4.266667 2.133333 0 4.266667 0 6.4-2.133333 55.466667-44.8 87.466667-110.933333 87.466666-181.333334 0-115.2-87.466667-213.333333-204.8-230.4zM618.666667 629.333333m-21.333334 0a21.333333 21.333333 0 1 0 42.666667 0 21.333333 21.333333 0 1 0-42.666667 0ZM520.533333 620.8H288c-6.4 0-10.666667 4.266667-10.666667 10.666667s4.266667 10.666667 10.666667 10.666666h232.533333c6.4 0 10.666667-4.266667 10.666667-10.666666s-4.266667-10.666667-10.666667-10.666667zM629.333333 533.333333h-341.333333C234.666667 533.333333 192 576 192 629.333333s42.666667 96 96 96h341.333333c53.333333 0 96-42.666667 96-96S682.666667 533.333333 629.333333 533.333333z m0 170.666667h-341.333333c-40.533333 0-74.666667-34.133333-74.666667-74.666667s34.133333-74.666667 74.666667-74.666666h341.333333c40.533333 0 74.666667 34.133333 74.666667 74.666666S669.866667 704 629.333333 704z" p-id="3655"></path></svg>