<svg class="icon" style="width: 1em;height: 1em;vertical-align: middle;fill: currentColor;overflow: hidden;"
    viewBox="0 0 1024 1024" version="1.1" xmlns="http://www.w3.org/2000/svg" p-id="10397">
    <path
        d="M962.88754 321.202057H888.514337C823.437785 88.785799 586.373202-46.01563 353.956945 14.412597 121.540687 79.489149-13.260742 316.553732 47.167485 548.969989c46.483252 162.69138 181.284681 288.196159 348.624386 316.08611v41.834927c4.648325 13.944975 13.944975 23.241626 23.241626 23.241626h4.648325v55.779901c-4.648325 18.593301 9.29665 32.538276 23.241626 37.186602h32.538276c18.593301 4.648325 32.538276-9.29665 37.186601-27.889951V930.132652c9.29665 0 18.593301-4.648325 23.241626-18.593301v-46.483252c181.284681-27.889951 325.382761-171.988031 357.921036-353.272711h55.779902c13.944975 0 27.889951-9.29665 27.889951-23.241626v-139.449754c4.648325-13.944975-4.648325-27.889951-18.5933-27.889951z m-353.272712 441.590889c-181.284681 74.373202-385.810987-9.29665-460.18419-190.581331-79.021528-181.284681 4.648325-385.810987 185.933006-464.832515 181.284681-74.373202 385.810987 9.29665 460.18419 190.581331 18.593301 41.834926 27.889951 88.318178 27.889951 134.801429 0 148.746405-83.669853 274.251184-213.822957 330.031086zM656.09808 163.159002C535.241626 79.489149 372.550245 93.434125 265.638767 186.400628v4.648325c-120.856454 102.263153-148.746405 278.899509-65.076552 413.700938 4.648325 9.29665 18.593301 13.944975 23.241626 4.648325 13.944975-4.648325 13.944975-13.944975 9.29665-23.241626-4.648325-4.648325-9.29665-13.944975-9.29665-18.5933l37.186601-18.593301c9.29665-9.29665 9.29665-18.593301 0-27.889951-4.648325-9.29665-13.944975-9.29665-18.593301-9.29665l-32.538276 18.593301c-13.944975-37.186601-18.593301-79.021528-13.944975-116.208129H233.100491c13.944975 0 18.593301-4.648325 18.593301-18.593301 0-9.29665-4.648325-18.593301-13.944976-23.241625h-37.186601c9.29665-55.779902 41.834926-102.263153 79.021527-144.09808l23.241626 23.241626c4.648325 9.29665 18.593301 9.29665 23.241626 4.648325 0 0 4.648325 0 4.648325-4.648325 9.29665-4.648325 9.29665-18.593301 4.648325-23.241626 0 0 0-4.648325-4.648325-4.648325l-18.5933-18.593301c41.834926-27.889951 92.966503-46.483252 139.449754-51.131577v41.834927c0 9.29665 4.648325 18.593301 13.944975 18.5933h4.648326c9.29665 0 18.593301-4.648325 18.5933-13.944975v-46.483252c51.131577 4.648325 102.263153 23.241626 139.449755 51.131577l-18.593301 18.593301c-4.648325 9.29665-4.648325 18.593301 0 27.889951 0 0 0 4.648325 4.648325 4.648325 4.648325 9.29665 18.593301 9.29665 23.241626 4.648325 0 0 4.648325 0 4.648325-4.648325l23.241626-23.241626c41.834926 37.186601 69.724877 88.318178 83.669853 144.09808h-27.889951c-13.944975-4.648325-23.241626 0-23.241626 9.29665v4.648325c0 13.944975 4.648325 18.593301 18.593301 18.593301h37.186601c4.648325 41.834926 0 79.021528-13.944976 116.208128l-32.538276-13.944975c-9.29665-4.648325-23.241626 0-27.889951 9.29665-4.648325 9.29665 0 18.593301 4.648326 23.241626l37.186601 18.593301c-4.648325 9.29665-4.648325 13.944975-13.944976 23.241625-4.648325 9.29665-4.648325 23.241626 4.648325 27.889951 4.648325 0 4.648325 4.648325 9.296651 4.648326s13.944975-4.648325 13.944975-9.296651c106.911478-148.746405 69.724877-348.624386-79.021527-446.239214zM539.889951 688.419744H414.385172c-9.29665 0-18.593301 13.944975-18.593301 23.241626s9.29665 13.944975 18.593301 18.5933h120.856454c9.29665 0 18.593301-4.648325 23.241626-18.5933 0-9.29665-9.29665-23.241626-18.593301-23.241626zM512 465.300137c4.648325-4.648325 4.648325-9.29665 4.648325-13.944976 0-4.648325 0-9.29665-4.648325-13.944975L419.033497 330.498707c-9.29665-9.29665-69.724877-60.428227-79.021528-55.779902s41.834926 74.373202 46.483252 79.021528l97.614828 106.911478c9.29665 9.29665 18.593301 9.29665 27.889951 4.648326zM637.504779 614.046541H316.770344c-9.29665 0-18.593301 4.648325-23.241626 18.593301 0 9.29665 4.648325 18.593301 18.593301 23.241626H632.856454c9.29665 0 18.593301-4.648325 23.241626-18.593301 0-9.29665-9.29665-18.593301-18.593301-23.241626z"
        p-id="10398"></path>
</svg>