<svg class="icon" style="width: 1em;height: 1em;vertical-align: middle;fill: currentColor;overflow: hidden;"
    viewBox="0 0 1024 1024" version="1.1" xmlns="http://www.w3.org/2000/svg" p-id="7091">
    <path
        d="M704.60928 739.68128a45.77792 45.77792 0 1 0-45.42464-45.568 44.96896 44.96896 0 0 0 45.42464 45.568z m0-145.09568a99.66592 99.66592 0 0 1 99.52768 99.53792 101.13024 101.13024 0 0 1-99.52768 99.93216 99.7376 99.7376 0 0 1 0-199.47008z m204.70272 187.82208l1.45408-3.75808-31.0784-36.59776c-23.04-28.11392-23.89504-70.97344-1.96608-97.49504l32.71168-38.44608-1.97632-4.0192q-4.98688-9.5744-10.66496-18.75968a98.94912 98.94912 0 0 0-9.54368-16.26112l-2.304-3.29216-50.176 6.05696a78.47424 78.47424 0 0 1-83.2768-52.07552l-15.36-44.30336-4.1472-0.512a226.69312 226.69312 0 0 0-57.07264 0.06656l-3.94752 0.4608-17.44384 46.5408a77.24544 77.24544 0 0 1-72.41728 50.95424 71.72096 71.72096 0 0 1-13.0304-1.18272l-48.05632-7.8336-2.49856 3.35872a223.744 223.744 0 0 0-19.74784 34.88768l-1.97632 3.94752 32.58368 38.1184a78.81728 78.81728 0 0 1 0 97.56672l-32.84992 38.7072 1.78176 3.81952a169.18016 169.18016 0 0 0 11.05408 20.66944 69.34016 69.34016 0 0 0 8.89344 14.48448l54.89664-4.87424a78.39744 78.39744 0 0 1 83.73248 52.00896l15.13472 46.01856 4.21888 0.5888a242.688 242.688 0 0 0 59.11552-0.06656l4.00896-0.512 17.44896-48.45568a76.35456 76.35456 0 0 1 71.0912-50.75456 62.01856 62.01856 0 0 1 12.51328 1.18272l47.5904 7.76704 2.36544-3.55328a189.21984 189.21984 0 0 0 18.82624-34.42688h0.11264z m11.264-73.6L972.8 770.048l-5.59616 13.824a246.88128 246.88128 0 0 1-46.73536 82.816l-13.3632 13.3632c-78.00832-15.60064-78.00832-15.60064-78.6688-15.60064a23.6032 23.6032 0 0 0-22.7072 14.54592l-29.29152 81.92-12.50816-0.9216a291.41504 291.41504 0 0 1-120.7296 0l-15.6672-2.56-25.9328-76.21632a23.10656 23.10656 0 0 0-21.0688-14.7456l-88.33536 13.62432-7.23968-11.19232a146.51904 146.51904 0 0 1-26.00448-36.73088 200.28928 200.28928 0 0 1-21.05856-49.11104l-5.40672-13.16352L486.84544 708.608c6.144-7.63904 6.144-20.608 0.19968-26.46528l-52.5312-63.5904 5.59616-13.96224a259.52768 259.52768 0 0 1 48.51712-84.72064l13.4912-13.2352c76.16512 15.27808 76.16512 15.27808 76.75904 15.27808a28.24192 28.24192 0 0 0 25.01632-15.36l29.184-78.66368 12.288 0.45568a277.504 277.504 0 0 1 58.58816-6.25664 296.75008 296.75008 0 0 1 60.03712 6.25664l15.66208 2.83648 26.06592 74.1632a26.0096 26.0096 0 0 0 23.168 16.72704l86.23616-11.45856 7.2448 10.99264a155.83232 155.83232 0 0 1 26.06592 39.36256 252.67712 252.67712 0 0 1 13.3632 29.04064l10.92608 26.58816-52.224 62.94016a24.49408 24.49408 0 0 0 0.06656 29.29664zM398.77632 906.04032l22.05184 5.98528-15.36-16.65536a562.51392 562.51392 0 0 1-86.23616-127.58016l-1.9712-3.29216H188.11904l9.34912 10.66496a401.1776 401.1776 0 0 0 201.17504 130.87744h0.13312z m-243.96288-191.70304H295.8848l-3.29728-9.216a567.43424 567.43424 0 0 1-32.83968-161.75104v-5.92384H102.60992l0.72704 6.58432a406.07744 406.07744 0 0 0 49.43872 166.35392l1.9712 3.95264h0.06656z m-51.34336-235.008l-0.78848 7.30624h157.06624v-5.9392a557.81376 557.81376 0 0 1 32.768-161.024l3.36896-9.34912H154.74688l-1.9712 3.29216A414.4896 414.4896 0 0 0 103.424 479.31904h0.06656z m94.1312-230.4L188.25216 259.584h129.024l1.9712-3.29216A564.6336 564.6336 0 0 1 405.504 128.62976l15.36-16.65536-22.05184 5.9904a407.45472 407.45472 0 0 0-201.21088 131.00544v-0.06656zM473.6 130.66752a502.34368 502.34368 0 0 0-92.8 118.89664L374.74304 259.584h110.2592V120.00768z m61.4912-10.65984V259.584h110.98624l-6.06208-10.00448a541.184 541.184 0 0 0-93.47072-118.89664z m86.89152-1.97632l-22.12352-6.144 15.4112 16.65536a604.79488 604.79488 0 0 1 86.23104 127.58528l1.31584 3.35872h129.024l-9.40032-10.65472a402.77504 402.77504 0 0 0-200.51456-130.8672zM410.112 819.79904a318.63808 318.63808 0 0 0 135.0144 150.95296 347.0592 347.0592 0 0 1-80.896-0.66048 454.144 454.144 0 0 1-293.376-148.25472 460.76928 460.76928 0 0 1 293.376-768c15.40608-1.31584 30.08-2.63168 46.08-2.63168 15.40608 0 30.81216 1.32096 46.15168 2.63168a450.5088 450.5088 0 0 1 292.736 148.32128 455.86432 455.86432 0 0 1 120.32 309.87264 8.704 8.704 0 0 1-0.66048 4.01408 291.20512 291.20512 0 0 0-54.10816-60.8256 417.536 417.536 0 0 0-46.73536-141.53728l-1.98144-3.29216h-141.0816l3.28704 9.28256a410.35776 410.35776 0 0 1 16.72192 58.12736 276.63872 276.63872 0 0 0-41.40544-2.63168 74.37312 74.37312 0 0 0-12.05248 0.66048 468.74112 468.74112 0 0 0-20.00384-60.83072l-1.32096-4.608H535.04v113.42848a281.14944 281.14944 0 0 0-50.03264 38.84032V310.272H350.52032l-1.97632 4.67456a547.40992 547.40992 0 0 0-38.11328 164.97152v6.656h151.07072a339.99872 339.99872 0 0 0-36.13696 50.7648H310.56384v6.656a555.25376 555.25376 0 0 0 38.17984 165.69856l1.9712 4.608h34.69312a300.032 300.032 0 0 0 7.36768 50.176h-18.03264l5.9904 9.94304a376.32 376.32 0 0 0 28.76416 44.10368 1.31584 1.31584 0 0 1 0.66048 1.31584H410.112z m0 0"
        p-id="7092"></path>
</svg>