<svg class="icon" style="width: 1em;height: 1em;vertical-align: middle;fill: currentColor;overflow: hidden;"
    viewBox="0 0 1024 1024" version="1.1" xmlns="http://www.w3.org/2000/svg" p-id="6122">
    <path
        d="M928 64H96c-17.7 0-32 14.3-32 32v143h461c8.8 0 16 7.2 16 16v49h203.9l-57.4-92h94.3L889 384H477c-8.8 0-16-7.2-16-16v-49H64v153h832v80H64v153h397v-49c0-8.8 7.2-16 16-16h412.3L782 811h-94.4l57.1-91H541v49c0 8.8-7.2 16-16 16H64v143c0 17.7 14.3 32 32 32h832c17.7 0 32-14.3 32-32V96c0-17.7-14.3-32-32-32z"
        p-id="6123"></path>
</svg>