<svg viewBox="0 0 48 48" id="icon-security_cloudFirewall_center_console">
    <path
        d="M42.3 6.7 24.8 2.1c-.2-.1-.4-.1-.5 0L6.8 6.7c-.5.1-.8.5-.8.9v19.2C6 35 23.3 44.7 24 45.1c.1.1.3.1.5.1s.3-.1.5-.1c.7-.4 18-10.1 18-18.3V7.6c0-.4-.3-.8-.7-.9zM41 26.9c0 5.7-11.4 13.4-16.5 16.3C19.4 40.3 8 32.5 8 26.9V8.5L24.5 4 41 8.5v18.4z">
    </path>
    <path
        d="m24.2 11.2-8.6 2.3c-.4.1-.7.5-.7 1v11.9c0 .2 0 .3.1.5 1 1.7 4.5 4.9 8.9 7.9.3.2.8.2 1.1 0 4.5-3.1 8-6.3 8.9-7.9.1-.1.1-.3.1-.5V14.5c0-.5-.3-.8-.7-1l-8.6-2.3c-.1-.1-.3-.1-.5 0zm8.9 15.1H22v-7h11.1v7zm-12.1 0h-5.1v-7H21v7zm3.5 7.6c-4-2.7-6.6-5.1-7.8-6.5H27v4.8c-.8.5-1.6 1.1-2.5 1.7zm3.5-2.6v-4h4.3c-.8 1-2.2 2.4-4.3 4zm5.1-13H30v-4.7l3.1.8v3.9zm-4.1-5v5H15.9v-3.9l8.6-2.3 4.5 1.2z">
    </path>
</svg>