<svg class="icon" style="width: 1em;height: 1em;vertical-align: middle;fill: currentColor;overflow: hidden;" viewBox="0 0 1024 1024" version="1.1" xmlns="http://www.w3.org/2000/svg" p-id="3989"><path d="M809.890909 884.363636H214.109091c-40.339394 0-74.472727-34.133333-74.472727-77.575757v-170.666667c0-43.442424 34.133333-77.575758 74.472727-77.575757h325.818182v-148.945455c0-31.030303 24.824242-55.854545 52.751515-55.854545 27.927273 0 52.751515 24.824242 52.751515 55.854545V558.545455H806.787879c40.339394 0 74.472727 34.133333 74.472727 77.575757V806.787879c3.10303 43.442424-31.030303 77.575758-71.369697 77.575757zM214.109091 589.575758c-24.824242 0-43.442424 21.721212-43.442424 46.545454V806.787879c0 24.824242 18.618182 46.545455 43.442424 46.545454h595.781818c24.824242 0 43.442424-21.721212 43.442424-46.545454v-170.666667c0-24.824242-18.618182-46.545455-43.442424-46.545454h-192.387879v-179.975758c0-12.412121-9.309091-24.824242-21.721212-24.824242s-21.721212 9.309091-21.721212 24.824242V589.575758H214.109091z" fill="#222222" p-id="3990"></path><path d="M394.084848 713.69697c-21.721212 0-37.236364 18.618182-37.236363 37.236363 0 21.721212 18.618182 37.236364 37.236363 37.236364 21.721212 0 37.236364-18.618182 37.236364-37.236364 3.10303-18.618182-15.515152-37.236364-37.236364-37.236363zM269.963636 713.69697c-21.721212 0-37.236364 18.618182-37.236363 37.236363 0 21.721212 18.618182 37.236364 37.236363 37.236364 21.721212 0 37.236364-18.618182 37.236364-37.236364 3.10303-18.618182-15.515152-37.236364-37.236364-37.236363z" fill="" p-id="3991"></path><path d="M595.781818 248.242424c-89.987879 0-161.357576 71.369697-161.357576 161.357576 0 21.721212 18.618182 37.236364 37.236364 37.236364 21.721212 0 37.236364-18.618182 37.236364-37.236364 0-46.545455 37.236364-83.781818 83.781818-83.781818 46.545455 0 83.781818 37.236364 83.781818 83.781818 0 21.721212 18.618182 37.236364 37.236364 37.236364 21.721212 0 37.236364-18.618182 37.236363-37.236364 9.309091-86.884848-65.163636-161.357576-155.151515-161.357576z" fill="#FF800E" p-id="3992"></path><path d="M595.781818 139.636364c-158.254545 0-285.478788 127.224242-285.478788 285.478788 0 21.721212 18.618182 37.236364 37.236364 37.236363 21.721212 0 37.236364-18.618182 37.236364-37.236363a207.90303 207.90303 0 0 1 415.80606 0c0 21.721212 18.618182 37.236364 37.236364 37.236363 21.721212 0 37.236364-18.618182 37.236363-37.236363 9.309091-158.254545-117.915152-285.478788-279.272727-285.478788z" fill="#FF800E" p-id="3993"></path></svg>