<svg class="icon" style="width: 1em;height: 1em;vertical-align: middle;fill: currentColor;overflow: hidden;"
    viewBox="0 0 1024 1024" version="1.1" xmlns="http://www.w3.org/2000/svg" p-id="3801">
    <path
        d="M663.3 563.7c-12.3 0-16.7 5.3-16.7 5.3l-168.1 80-168.1-81.8c-5.3-2.6-10.6-3.5-16.7-4.4-21.1-2.6-30.8 12.3-30.8 27.3 0 9.7 6.2 17.6 14.1 22l184.8 91.5c5.3 2.6 10.6 5.3 16.7 5.3 6.2 0 11.4-1.8 16.7-5.3L680 614.7c7.9-5.3 14.1-14.1 14.1-23.8 0-14.9-14.1-27.2-30.8-27.2zM787.1 293.8C767.5 197.4 684.6 126 588.2 126c-78.5 0-149.9 48.2-182.9 120.4-17-7.1-34.8-9.8-53.5-9.8-77.6 0-141 60.7-149 139.2C127 383 67.2 449.9 67.2 530.2c0 81.2 60.7 148.1 137.4 154.3v-34.8C147.5 643.5 102 592.6 102 530.2c0-66.9 51.7-121.3 116.9-121.3h17v-18.7c0.9-66 51.7-119.5 115.1-119.5 18.7 0 37.5 4.5 54.4 14.3l17.8 9.8 7.1-18.7C454.4 207.4 517.7 161 588.2 161c83 0 155.2 65.1 166.8 151.7l1.8 13.4 14.3 0.9c81.2 5.4 145.4 76.7 145.4 162.4 0 89.2-69.6 162.4-155.2 162.4h-8.9v33.9h8.9c104.4 0 189.1-88.3 189.1-196.3 0-99.3-71.4-182.2-163.3-195.6zM663.3 660.5c-12.3 0-16.7 5.3-16.7 5.3l-168.1 80.1-168-81.9c-5.3-2.6-10.6-3.5-16.7-4.4-21.1-2.6-30.8 12.3-30.8 27.3 0 9.7 6.2 17.6 14.1 22l184.8 91.5c5.3 2.6 10.6 5.3 16.7 5.3 6.2 0 11.4-1.8 16.7-5.3L680 711.5c7.9-5.3 14.1-14.1 14.1-23.8 0-14.9-14.1-27.2-30.8-27.2zM680 468.6l-184.8-91.5c-5.3-2.6-10.6-4.4-16.7-4.4s-12.3 1.8-16.7 5.3L277 467.8c-7.9 4.4-14.1 12.3-14.1 22s6.2 17.6 14.1 22l184.8 90.6c5.3 2.6 10.6 5.3 16.7 5.3s11.4-1.8 16.7-5.3L680 511.8c7.9-5.3 14.1-12.3 14.1-22 0-8-6.2-15.9-14.1-21.2z"
        p-id="3802"></path>
</svg>