<svg viewBox="0 0 32 32" id="icon-eip_center_console"><style>#icon-eip_center_console .st0{fill:#070102}</style><path class="st0" d="M16 30.9C7.8 30.9 1.1 24.2 1.1 16S7.8 1.1 16 1.1 30.9 7.8 30.9 16 24.2 30.9 16 30.9zm0-28.3C8.6 2.6 2.6 8.6 2.6 16s6 13.4 13.4 13.4 13.4-6 13.4-13.4S23.4 2.6 16 2.6z"></path><path d="M12.3 20.5c0 .4-.2.6-.7.6-.4 0-.6-.2-.6-.6V10.2c0-.4.2-.6.6-.6.2 0 .4 0 .5.1s.2.2.2.5v10.3zM15.1 10.6V10c.1-.1.4-.2.8-.2h2.6c1.2 0 2.1.3 2.7.8s.9 1.4.9 2.6c0 2.3-1.2 3.5-3.6 3.5h-2.2v3.8c0 .2 0 .4-.1.5s-.3.2-.5.2-.4-.1-.5-.2-.1-.3-.1-.5v-9.9zm1.1 5h2.2c.8 0 1.4-.2 1.8-.6s.5-1 .5-1.8-.2-1.4-.6-1.8-1-.5-1.7-.5h-2.2v4.7z"></path><path class="st0" d="M16 27.3c-2.6 0-5.2-.9-7.3-2.5-.2-.2-.3-.5-.1-.7.1-.2.4-.3.7-.1 2 1.6 4.5 2.4 7.1 2.3 2.5-.1 4.9-1 6.8-2.6.2-.2.5-.2.7.1.2.2.2.5-.1.7-2.1 1.8-4.6 2.7-7.4 2.8H16z"></path></svg>
