<svg class="icon" style="width: 1em;height: 1em;vertical-align: middle;fill: currentColor;overflow: hidden;" viewBox="0 0 1024 1024" version="1.1" xmlns="http://www.w3.org/2000/svg" p-id="3533"><path d="M533.333 725.333a64 64 0 1 1-64 64 64 64 0 0 1 64-64m0-85.333a149.333 149.333 0 1 0 149.334 149.333A149.333 149.333 0 0 0 533.333 640zM426.667 277.333a106.667 106.667 0 1 0 213.333 0 106.667 106.667 0 1 0-213.333 0zM170.667 320A106.667 106.667 0 1 0 384 320a106.667 106.667 0 1 0-213.333 0zM682.667 320A106.667 106.667 0 1 0 896 320a106.667 106.667 0 1 0-213.333 0z" fill="#currentColor" p-id="3534"></path><path d="M512 341.333h42.667v384H512z" fill="#currentColor" p-id="3535"></path><path d="M741.29 357.504l30.166 30.165-225.067 225.067-30.165-30.165z" fill="#currentColor" p-id="3536"></path><path d="M558.08 582.016l-30.165 30.165L299.22 383.488l30.166-30.165z" fill="currentColor" p-id="3537"></path></svg>