<svg class="icon" style="width: 1em;height: 1em;vertical-align: middle;fill: currentColor;overflow: hidden;" viewBox="0 0 1024 1024" version="1.1" xmlns="http://www.w3.org/2000/svg" p-id="7847"><path d="M981.415475 274.962963v-117.239457a115.232857 115.232857 0 0 0-115.115512-115.103777h-708.529519a115.232857 115.232857 0 0 0-115.115512 115.115511v117.227723c0 35.790246 16.756876 67.426476 42.46718 88.572057-25.710304 21.122112-42.46718 52.805281-42.46718 88.560323v117.180785c0 36.552989 17.460946 68.822882 44.121746 89.921525-26.660799 21.122112-44.121746 53.368537-44.121746 89.93326v117.16905a115.256326 115.256326 0 0 0 115.115512 115.080308h708.529519a115.256326 115.256326 0 0 0 115.115512-115.127246v-117.215988c0-36.564723-17.460946-68.834617-44.121746-89.93326 26.660799-21.122112 44.121746-53.368537 44.121746-89.921525v-117.133847c0-35.80198-16.756876-67.43821-42.46718-88.560323 25.710304-21.145581 42.46718-52.781812 42.46718-88.525119z m-53.110378 591.290062a62.110744 62.110744 0 0 1-62.005134 62.016869h-708.529519a62.110744 62.110744 0 0 1-62.005134-62.016869v-117.215988a62.087275 62.087275 0 0 1 62.005134-61.993399h708.529519a62.087275 62.087275 0 0 1 62.005134 61.993399z m0-414.228089v117.180785a62.075541 62.075541 0 0 1-62.005134 61.981664h-708.529519a62.075541 62.075541 0 0 1-62.005134-61.981664v-117.157316a62.087275 62.087275 0 0 1 62.005134-62.005134h708.529519a62.087275 62.087275 0 0 1 62.005134 62.005134z m-770.534653-115.115512a62.09901 62.09901 0 0 1-62.005134-61.946461v-117.239457a62.087275 62.087275 0 0 1 62.005134-61.9934h708.529519a62.087275 62.087275 0 0 1 62.005134 61.9934v117.239457a62.09901 62.09901 0 0 1-62.005134 61.993399z" fill=currentColor" p-id="7848"></path><path d="M365.001834 189.746975H210.880821a26.566923 26.566923 0 0 0 0 53.133846h154.121013a26.566923 26.566923 0 0 0 0-53.133846zM210.880821 537.205721h154.121013a26.578658 26.578658 0 0 0 0-53.157316H210.880821a26.578658 26.578658 0 0 0 0 53.157316zM365.001834 781.107444H210.880821a26.566923 26.566923 0 0 0 0 53.122112h154.121013a26.566923 26.566923 0 0 0 0-53.122112z" fill=currentColor" p-id="7849"></path></svg>