<svg class="icon" style="width: 1em;height: 1em;vertical-align: middle;fill: currentColor;overflow: hidden;" viewBox="0 0 1024 1024" version="1.1" xmlns="http://www.w3.org/2000/svg" p-id="5006"><path d="M914.56 212.48L530.24 30.08a42.688 42.688 0 0 0-36.608 0L109.952 212.48a42.688 42.688 0 0 0-24.32 38.528v479.168c0 16.448 9.472 31.488 24.32 38.528l383.68 182.72a42.688 42.688 0 0 0 36.672 0l384.32-182.72a42.688 42.688 0 0 0 24.32-38.528V251.008a42.688 42.688 0 0 0-24.384-38.528zM170.88 703.232V331.904l295.488 148.352 0.832 0.384 5.504 366.336-301.76-143.744z m682.752-371.392l-298.24 148.544-2.816 1.28 5.44 362.112 295.616-140.544V331.84zM213.376 257.728L512 115.968l299.008 141.824-293.632 146.24a14.208 14.208 0 0 1-12.736 0l-291.2-146.304z" fill="currentColor" p-id="5007"></path></svg>