<svg class="icon" style="width: 1em;height: 1em;vertical-align: middle;fill: currentColor;overflow: hidden;"
    viewBox="0 0 1024 1024" version="1.1" xmlns="http://www.w3.org/2000/svg" p-id="8841">
    <path
        d="M550.172749 284.330731a11.762605 11.762605 0 0 1-6.263206-1.680372l-112.279412-64.465187a12.373649 12.373649 0 0 1-6.415966-10.846038V77.797717a12.831933 12.831933 0 0 1 6.263205-10.998799L542.534693 1.722687a12.526411 12.526411 0 0 1 12.679172 0l112.432173 64.465186a12.831933 12.831933 0 0 1 6.263205 10.9988v129.388655a12.526411 12.526411 0 0 1-6.263205 10.9988l-111.057323 65.076231a11.915366 11.915366 0 0 1-6.415966 1.680372zM450.878031 200.006601l99.60024 57.132653L649.467467 199.395557V84.519206l-99.905763-57.285415L450.878031 84.977489zM549.867226 198.631751a54.841237 54.841237 0 1 1 54.841237-54.688475A54.688476 54.688476 0 0 1 549.867226 198.631751z m0-84.171369a29.482893 29.482893 0 1 0 29.482894 29.482894 29.482893 29.482893 0 0 0-29.482894-30.093938zM962.780493 914.317527a12.526411 12.526411 0 0 1-12.526411-12.526411V329.548018a21.997599 21.997599 0 0 0-21.997599-21.844838h-24.441777a12.679172 12.679172 0 1 1 0-25.358344h24.441777a47.355942 47.355942 0 0 1 47.203181 47.203182V901.332833a12.679172 12.679172 0 0 1-12.679171 12.984694zM61.184452 914.317527a12.679172 12.679172 0 0 1-12.679171-12.984694V329.548018a47.355942 47.355942 0 0 1 47.203181-47.203182H128.552099a12.679172 12.679172 0 0 1 0 25.358344H95.708462a21.997599 21.997599 0 0 0-21.997599 21.844838V901.332833a12.526411 12.526411 0 0 1-12.526411 12.984694zM912.216567 914.317527a12.526411 12.526411 0 0 1-12.526411-12.526411V358.267105h-38.037515a12.679172 12.679172 0 0 1 0-25.358343H909.161345a16.192677 16.192677 0 0 1 15.27611 16.192677V901.332833a12.679172 12.679172 0 0 1-12.220888 12.984694z m-3.055222-556.050422zM111.748378 914.317527A12.679172 12.679172 0 0 1 99.52749 901.332833V349.101439a16.192677 16.192677 0 0 1 15.27611-16.192677h13.748499a12.679172 12.679172 0 0 1 0 25.358343h-4.27731V901.332833a12.526411 12.526411 0 0 1-12.526411 12.984694zM513.204561 973.436074H79.515785A57.743698 57.743698 0 0 1 38.423048 954.79922a57.438175 57.438175 0 0 1-15.276111-41.703782V901.332833a12.679172 12.679172 0 0 1 12.679172-12.679172h412.454983a12.831933 12.831933 0 0 1 12.373649 9.776711 8.707383 8.707383 0 0 0 9.318428 7.027011h85.087935a43.384154 43.384154 0 0 0 12.068127-11.609844 12.984694 12.984694 0 0 1 10.234994-5.193878h410.774611A12.679172 12.679172 0 0 1 1000.818008 901.332833v11.151561a58.660264 58.660264 0 0 1-55.757804 61.104441zM48.505281 914.317527a32.690876 32.690876 0 0 0 31.468787 33.760204h864.475092a32.232593 32.232593 0 0 0 22.455882-10.693277 33.760204 33.760204 0 0 0 8.554622-23.066927H582.710864a39.717887 39.717887 0 0 1-29.02461 17.567527h-83.713085a33.301921 33.301921 0 0 1-30.552221-16.956483zM881.817107 1010.862545m-13.137455 0a13.137455 13.137455 0 1 0 26.27491 0 13.137455 13.137455 0 1 0-26.27491 0ZM836.447059 1023.541717H170.714164a12.679172 12.679172 0 0 1 0-25.358344h665.732895a12.679172 12.679172 0 0 1 0 25.358344zM220.208762 801.42707a12.526411 12.526411 0 0 1-9.012905-3.666266 12.679172 12.679172 0 0 1 0-17.873049l139.318128-139.318128a12.679172 12.679172 0 0 1 17.873049 17.873049l-139.318128 139.318128a12.526411 12.526411 0 0 1-8.860144 3.666266zM252.288594 834.117947a12.679172 12.679172 0 0 1-9.012905-21.539316L384.885233 672.191176a12.679172 12.679172 0 0 1 17.87305 17.873049l-140.9985 140.9985a12.526411 12.526411 0 0 1-9.471189 3.055222zM733.333313 395.846337a58.660264 58.660264 0 0 1-41.55102-17.109243l-36.051621-36.204382a58.813025 58.813025 0 0 1 0-82.94928l111.515606-111.515607a12.526411 12.526411 0 0 1 17.87305 0l101.127851 101.127852a12.526411 12.526411 0 0 1 0 17.873049l-111.362845 111.668368a58.354742 58.354742 0 0 1-41.551021 17.109243z m-23.677971-34.982293a33.607443 33.607443 0 0 0 47.355942 0l102.349941-102.808223-83.254802-83.254802-102.502702 102.655462a33.607443 33.607443 0 0 0 0 47.355943zM405.049699 612.0033a12.679172 12.679172 0 0 1-8.707383-21.844838l50.258404-48.272509a12.679172 12.679172 0 0 1 17.873049 0 12.526411 12.526411 0 0 1 0 17.87305l-50.411165 48.272509a12.984694 12.984694 0 0 1-9.012905 3.971788zM550.631032 469.018906a12.679172 12.679172 0 0 1-9.012905-21.539315l117.931573-118.084334a12.679172 12.679172 0 0 1 17.873049 17.873049l-117.931573 118.084334a12.526411 12.526411 0 0 1-8.860144 3.666266zM438.198859 647.90216a12.831933 12.831933 0 0 1-9.165666-3.971789 12.679172 12.679172 0 0 1 0-17.873049l53.92467-52.244298a12.679172 12.679172 0 0 1 17.873049 0 12.526411 12.526411 0 0 1 0 17.87305l-53.92467 52.244297a12.220888 12.220888 0 0 1-8.707383 3.971789zM583.474669 504.153961a12.679172 12.679172 0 0 1-9.012905-21.539316l119.153662-119.153662A12.679172 12.679172 0 0 1 711.488475 381.945077l-119.153661 119.153661a12.526411 12.526411 0 0 1-8.860145 3.055223zM451.947358 743.225089a12.526411 12.526411 0 0 1-8.860144-3.666266l-141.304022-141.304022a12.679172 12.679172 0 0 1-3.666266-8.860144 13.290216 13.290216 0 0 1 3.666266-9.012905l36.662665-36.662665a12.679172 12.679172 0 0 1 17.87305 0l141.304022 141.304022a12.679172 12.679172 0 0 1 3.666266 8.860144 13.290216 13.290216 0 0 1-3.666266 9.012905l-36.662666 36.662665a13.137455 13.137455 0 0 1-9.012905 3.666266zM328.669147 589.394657l123.278211 123.278212 18.789616-18.789616-123.278211-123.278212zM286.20156 867.572629a11.915366 11.915366 0 0 1-8.860144-3.666267l-98.683674-98.836435a12.526411 12.526411 0 0 1 0-17.873049l117.931573-118.084334a12.679172 12.679172 0 0 1 17.873049 17.873049l-109.071429 109.22419 80.810625 80.810625 109.071428-109.22419a12.984694 12.984694 0 0 1 18.025811 0 12.679172 12.679172 0 0 1 0 17.873049l-118.084334 118.237095a12.526411 12.526411 0 0 1-9.012905 3.666267zM294.297898 434.95318a137.484994 137.484994 0 0 1-97.156062-40.17617 145.12305 145.12305 0 0 1-45.828332-104.335835 68.436975 68.436975 0 0 1 20.622749-45.828331l1.37485-1.37485A12.831933 12.831933 0 0 1 191.184152 244.460082l56.521609 56.521609 42.77311-6.263205 6.263205-42.773109-54.382953-54.382954a12.831933 12.831933 0 0 1-5.804922-10.693277 13.137455 13.137455 0 0 1 5.041116-10.234994 67.520408 67.520408 0 0 1 43.995198-19.247899 149.40036 149.40036 0 0 1 105.405162 44.453481 137.484994 137.484994 0 0 1-97.156062 233.877252zM183.546097 271.346037a42.773109 42.773109 0 0 0-6.263205 19.858943 119.917467 119.917467 0 0 0 37.426471 85.393458 111.821129 111.821129 0 1 0 158.718787-157.64946 123.430973 123.430973 0 0 0-86.768307-37.120949 40.939976 40.939976 0 0 0-17.720288 5.193878l50.563925 50.716687a12.373649 12.373649 0 0 1 3.513506 10.693277l-8.401861 58.507503a12.373649 12.373649 0 0 1-10.693277 10.693278l-58.507503 8.554621a12.526411 12.526411 0 0 1-10.693278-3.666266zM731.805702 863.753601a148.331033 148.331033 0 0 1-105.557923-44.606242 130.763506 130.763506 0 0 1-27.191477-144.512006v-1.222088l4.888355-8.401861-251.292017-251.59754a12.679172 12.679172 0 0 1 17.873049-17.873049L628.997479 653.859843a12.526411 12.526411 0 0 1 2.138655 15.276111l-9.165666 16.345438a105.09964 105.09964 0 0 0 22.303121 115.945678 122.208884 122.208884 0 0 0 86.921069 37.120949 40.939976 40.939976 0 0 0 17.720288-5.193878l-51.022209-51.17497a12.831933 12.831933 0 0 1-3.513506-10.693277l8.401861-58.507503a12.526411 12.526411 0 0 1 10.693278-10.693278l58.20198-8.554621a12.526411 12.526411 0 0 1 10.693278 3.666266L834.002881 748.571728a40.939976 40.939976 0 0 0 6.110444-19.706182A119.764706 119.764706 0 0 0 802.228571 643.013805a109.835234 109.835234 0 0 0-115.792917-22.761405l-21.692077 10.540516a12.526411 12.526411 0 0 1-15.27611-2.444177L394.0509 372.168366a12.679172 12.679172 0 0 1 0-17.873049 12.526411 12.526411 0 0 1 17.873049 0l250.069928 249.764406 13.901261-6.721489h0.916566a135.346339 135.346339 0 0 1 143.289917 27.802521 144.817527 144.817527 0 0 1 45.828331 105.252402 67.978692 67.978692 0 0 1-20.77551 45.828331l-0.916567 0.916567a12.679172 12.679172 0 0 1-17.873049 0l-56.521609-56.521609-43.995198 5.346639-6.110444 42.773109L776.717467 824.952281a12.679172 12.679172 0 0 1 0 17.720288 68.284214 68.284214 0 0 1-44.911765 21.081032z"
        p-id="8842"></path>
</svg>