<svg class="icon" style="width: 1em;height: 1em;vertical-align: middle;fill: currentColor;overflow: hidden;" viewBox="0 0 1024 1024" version="1.1" xmlns="http://www.w3.org/2000/svg" p-id="3932"><path d="M623.616 431.616c0-31.744-25.6-56.832-56.832-56.832s-56.832 25.6-56.832 56.832c0 31.744 25.6 56.832 56.832 56.832s56.832-25.6 56.832-56.832zM836.096 0h-640c-53.248 0-92.16 30.72-96.768 75.776v864.256c0 49.152 39.936 83.968 97.28 83.968h638.976c53.76 0 97.28-34.816 97.28-77.312V77.824c1.024-43.52-43.008-77.824-96.768-77.824z m32.256 912.384c1.024 34.816-38.4 46.08-55.296 46.08H436.224l279.552-35.84c23.04-3.584 54.784-17.408 54.784-47.616V143.872c0-36.352-32.256-44.032-55.296-47.616l-294.4-36.352h391.68c16.896 0 55.808 10.24 55.296 46.08l0.512 806.4zM652.288 588.8v56.832h-56.832v85.504h-56.832v-189.44c-49.152-12.288-85.504-57.344-85.504-110.08 0-62.976 51.2-113.664 113.664-113.664s113.664 51.2 113.664 113.664c0 53.248-36.352 97.792-85.504 110.08v47.104h57.344z" p-id="3933"></path></svg>