<svg class="icon" style="width: 1em;height: 1em;vertical-align: middle;fill: currentColor;overflow: hidden;" viewBox="0 0 1024 1024" version="1.1" xmlns="http://www.w3.org/2000/svg" p-id="8928"><path d="M247.466667 379.733333v106.666667c0 12.8 12.8 25.6 25.6 25.6s25.6-8.533333 25.6-25.6V379.733333c42.666667-12.8 76.8-51.2 76.8-98.133333 0-55.466667-46.933333-102.4-102.4-102.4S170.666667 221.866667 170.666667 281.6c0 46.933333 34.133333 85.333333 76.8 98.133333z m25.6-153.6c29.866667 0 51.2 25.6 51.2 51.2s-21.333333 55.466667-51.2 55.466667-51.2-25.6-51.2-51.2 25.6-55.466667 51.2-55.466667zM494.933333 375.466667v102.4c0 12.8 12.8 25.6 25.6 25.6s25.6-12.8 25.6-25.6V375.466667c42.666667-12.8 76.8-51.2 76.8-98.133334 0-55.466667-46.933333-102.4-102.4-102.4-55.466667 0-102.4 46.933333-102.4 102.4 0 46.933333 29.866667 85.333333 76.8 98.133334z m25.6-153.6c29.866667 0 51.2 25.6 51.2 51.2 0 29.866667-25.6 51.2-51.2 51.2-29.866667 0-51.2-25.6-51.2-51.2s21.333333-51.2 51.2-51.2zM738.133333 375.466667v102.4c0 12.8 12.8 25.6 25.6 25.6s25.6-12.8 25.6-25.6V375.466667c42.666667-12.8 76.8-51.2 76.8-98.133334 0-55.466667-46.933333-102.4-102.4-102.4s-102.4 46.933333-102.4 102.4c0 46.933333 34.133333 85.333333 76.8 98.133334z m25.6-153.6c29.866667 0 51.2 25.6 51.2 51.2 0 29.866667-25.6 51.2-51.2 51.2-29.866667 0-51.2-25.6-51.2-51.2s21.333333-51.2 51.2-51.2zM844.8 567.466667H196.266667c-12.8 0-25.6 12.8-25.6 25.6v256c0 12.8 12.8 25.6 25.6 25.6h644.266666c12.8 0 25.6-12.8 25.6-25.6v-256c0-17.066667-8.533333-25.6-21.333333-25.6z m-25.6 256h-597.333333v-204.8h597.333333v204.8z" p-id="8929"></path></svg>