<svg viewBox="0 0 32 32" id="icon-vpc_center_console">
    <path
        d="M25.9 22.4c-.2.2-.5.3-.8.3h-6.3V22h6.3c.1 0 .2-.1.3-.1.1-.1.1-.2.1-.3v-4.1h.7v4.1c.1.2 0 .5-.3.8zm-19 .3c-.7 0-1.2-.5-1.2-1.2v-4.1h.7v4.1c0 .1 0 .2.1.3.2.1.3.2.4.2h6.3v.7H6.9zm18.7-8.2v-4.1c0-.1 0-.2-.1-.3s-.2-.1-.3-.1h-6.3v-.7h6.3c.7 0 1.2.5 1.2 1.2v4.1l-.8-.1zm-19.9 0v-4.1c0-.3.1-.6.4-.8.2-.2.5-.3.8-.3h6.3v.7H6.9c-.1 0-.2 0-.3.1s-.1.2-.1.3v4.1h-.8zM2.4 6.9C1.4 6.9.6 6.1.6 5c0-1.1.8-1.9 1.9-1.9 1 0 1.8.8 1.8 1.9 0 1.1-.8 1.9-1.9 1.9zm.1-3.2c-.7 0-1.3.6-1.3 1.3 0 .8.5 1.3 1.2 1.3S3.7 5.7 3.7 5c0-.8-.5-1.3-1.2-1.3zM8.7 4H4.9c-.2 0-.3-.1-.3-.3s.1-.3.3-.3h3.8c.2 0 .3.1.3.3s-.1.3-.3.3zM14.7 5.3H4.9c-.2 0-.3-.1-.3-.3s.1-.3.3-.3h9.8c.2 0 .3.1.3.3s-.1.3-.3.3zM14.7 6.6H4.9c-.2 0-.3-.1-.3-.3s.1-.3.3-.3h9.8c.2 0 .3.1.3.3s-.1.3-.3.3zM18.8 28.9c-1.1 0-1.9-.8-1.9-1.9s.8-1.9 1.9-1.9c1.1 0 1.9.8 1.9 1.9s-.8 1.9-1.9 1.9zm0-3.2c-.7 0-1.3.6-1.3 1.3s.6 1.3 1.3 1.3 1.3-.6 1.3-1.3-.6-1.3-1.3-1.3zM25 26h-3.7c-.2 0-.3-.1-.3-.3s.1-.3.3-.3H25c.2 0 .3.1.3.3s-.1.3-.3.3zM31.1 27.3h-9.8c-.2 0-.3-.1-.3-.3s.1-.3.3-.3h9.8c.2 0 .3.1.3.3s-.1.3-.3.3zM31.1 28.6h-9.8c-.2 0-.3-.1-.3-.3s.1-.3.3-.3h9.8c.2 0 .3.1.3.3s-.1.3-.3.3z">
    </path><text transform="translate(8.881 19.094)" style="font-size:7.5064px;font-family:'MicrosoftYaHei'">VPC</text>
</svg>