<svg viewBox="0 0 32 32" id="icon-ebs_center_console">
    <path
        d="M8.3 10.8c0 .6-.5 1.1-1.1 1.1s-1.1-.5-1.1-1.1c0-.6.5-1.1 1.1-1.1s1.1.5 1.1 1.1zM15.5 24.8c.5-.3 1.2-.1 1.5.4s.1 1.2-.4 1.5c-.5.3-1.2.1-1.5-.4s-.2-1.2.4-1.5zM24.1 11.5c-.5-.3-.7-1-.4-1.5s1-.7 1.5-.4c.5.3.7 1 .4 1.5-.4.5-1 .7-1.5.4z">
    </path>
    <path
        d="M16 31.1c-.1 0-.2 0-.3-.1L3.1 23.8c-.2-.1-.3-.3-.3-.6V8.8c0-.2.1-.5.3-.6L15.7 1c.2-.1.5-.1.7 0l12.5 7.2c.2.1.3.3.3.6v14.4c0 .2-.1.5-.3.6L16.3 31c-.1.1-.2.1-.3.1zM4.2 22.8 16 29.7l11.8-6.8V9.2L16 2.3 4.2 9.2v13.6z">
    </path>
    <path d="M16 16h-.2L7 11.1c-.2-.1-.2-.3-.1-.5s.3-.2.5-.1l8.8 4.9c.2.1.2.3.1.5-.1.1-.2.1-.3.1z"></path>
    <path d="M16 26.1c-.2 0-.3-.1-.3-.3v-10c0-.2.1-.3.3-.3s.3.1.3.3v10c0 .1-.1.3-.3.3z"></path>
    <path d="M16 16c-.1 0-.2-.1-.3-.2-.1-.2 0-.4.1-.5l8.6-5.2c.2-.1.4 0 .5.1.1.2 0 .4-.1.5L16.2 16H16z"></path>
</svg>