<svg viewBox="0 0 32 32" id="icon-ecm_center_console"><path fill="none" stroke="#000" stroke-width=".596" stroke-miterlimit="10" stroke-linecap="round" stroke-linejoin="bevel" d="M13.8 18.3h7.7"></path><path d="M13 18.3c0 .3-.3.6-.6.6s-.6-.3-.6-.6.3-.6.6-.6.6.3.6.6zM11.1 18.3c0 .3-.3.6-.6.6s-.6-.3-.6-.6.3-.6.6-.6.6.3.6.6z"></path><path fill="none" stroke="#000" stroke-width=".596" stroke-miterlimit="10" d="M22.9 20.6H8.6c-.4 0-.6-.3-.6-.6v-3.3c0-.3.3-.6.6-.6h14.3c.3 0 .6.3.6.6V20c-.1.3-.3.6-.6.6z"></path><path fill="none" stroke="#000" stroke-width=".596" stroke-miterlimit="10" stroke-linecap="round" stroke-linejoin="bevel" d="M13.8 24.4h7.7"></path><path d="M13 24.4c0 .3-.3.6-.6.6s-.6-.3-.6-.6.3-.6.6-.6.6.3.6.6zM11.1 24.4c0 .3-.3.6-.6.6s-.6-.3-.6-.6.3-.6.6-.6.6.3.6.6z"></path><path fill="none" stroke="#000" stroke-width=".596" stroke-miterlimit="10" d="M22.9 26.7H8.6c-.3 0-.6-.3-.6-.6v-3.3c0-.3.3-.6.6-.6h14.3c.3 0 .6.3.6.6v3.3c-.1.3-.3.6-.6.6z"></path><path d="M31.2 17.5c-.3-2.5-2-4.5-4.2-5.1 0-1-.3-1.9-.9-2.6-.7-.8-1.8-1.3-2.9-1.3-.8 0-1.5.2-2.2.7-1.6-3.1-4.1-3.8-6-3.8h-.7c-4.6.3-6.3 3.7-6.7 5.3-2.3.1-6.7 1.8-6.8 6.6-.1 2 .5 3.6 1.7 4.9 1.4 1.4 3.3 1.9 3.9 2.1V23c-.6-.2-2.1-.6-3.1-1.7-1-1-1.4-2.4-1.4-4 .1-1.8.9-3.3 2.4-4.3 1.3-.9 2.8-1.1 3.5-1.1H8c.2 0 .3 0 .4-.1s.2-.3.2-.4c0-.7 1.2-4.5 5.7-4.8h.6c2.5 0 4.2 1.3 5.2 3.8.1.2.2.3.4.4.2 0 .4 0 .5-.1.6-.6 1.3-.8 2-.8.8 0 1.5.3 2 .9s.7 1.4.6 2.2c0 .2 0 .3.1.4s.2.2.4.2c2 .3 3.5 2 3.8 4.2.2 1.8-.5 3.1-1.1 3.8-1 1.2-2.4 1.7-3.1 1.7h-.8v1.2h.8c1.1 0 2.8-.7 4-2.1.9-1.1 1.8-2.7 1.5-4.9z"></path></svg>