<svg class="icon" style="width: 1.125em;height: 1em;vertical-align: middle;fill: currentColor;overflow: hidden;"
    viewBox="0 0 1152 1024" version="1.1" xmlns="http://www.w3.org/2000/svg" p-id="10013">
    <path
        d="M384 768a64 64 0 0 1 64 64v32h704v64H448v32a64 64 0 0 1-64 64H320a64 64 0 0 1-64-64v-32H0v-64h256V832a64 64 0 0 1 64-64h64z m448-320a64 64 0 0 1 64 64v32h256v64h-256v32a64 64 0 0 1-64 64h-64a64 64 0 0 1-64-64v-32H0v-64h704V512a64 64 0 0 1 64-64h64zM384 0a64 64 0 0 1 64 64v32h704v64H448V192a64 64 0 0 1-64 64H320a64 64 0 0 1-64-64v-32H0v-64h256V64a64 64 0 0 1 64-64h64z"
        p-id="10014"></path>
</svg>