<svg class="icon" style="width: 1em;height: 1em;vertical-align: middle;fill: currentColor;overflow: hidden;"
    viewBox="0 0 1024 1024" version="1.1" xmlns="http://www.w3.org/2000/svg" p-id="6777">
    <path
        d="M253.216 0m100.352 0l567.296 0q100.352 0 100.352 100.352l0 567.296q0 100.352-100.352 100.352l-567.296 0q-100.352 0-100.352-100.352l0-567.296q0-100.352 100.352-100.352Z"
        fill="#D4DAE6" p-id="6778"></path>
    <path
        d="M711.232 224H88.864A88.864 88.864 0 0 0 0 312.864v622.272A88.864 88.864 0 0 0 88.864 1024h622.272A88.864 88.864 0 0 0 800 935.136V312.864A88.736 88.736 0 0 0 711.232 224z"
        fill="#8D9299" p-id="6779"></path>
    <path
        d="M421.472 321.184a13.152 13.152 0 0 0-10.944 0L168 431.744a13.824 13.824 0 0 0-8 12.608v141.12c0 142.4 81.696 271.392 208.16 328.608 20.704 9.376 36.352 13.92 47.84 13.92 11.488 0 27.104-4.544 47.84-13.92C590.304 856.864 672 727.84 672 585.44v-141.088a13.824 13.824 0 0 0-8-12.608l-242.528-110.56z"
        fill="#FFFFFF" p-id="6780"></path>
</svg>