<svg class="icon" style="width: 1em;height: 1em;vertical-align: middle;fill: currentColor;overflow: hidden;" viewBox="0 0 1024 1024" version="1.1" xmlns="http://www.w3.org/2000/svg" p-id="4183"><path d="M927 725.9v-50h-81.8c-4.2-29.6-15.9-56.9-33.1-79.8l57.8-57.8-35.4-35.4-57.8 57.8c-22.9-17.2-50.2-28.8-79.8-33.1v-81.8h-50v81.8c-29.6 4.2-56.9 15.9-79.8 33.1l-57.8-57.8-35.3 35.3 57.8 57.8c-17.2 22.9-28.8 50.2-33.1 79.8H417v50h81.8c4.2 29.6 15.9 56.9 33.1 79.8L474 863.5l35.4 35.4 57.8-57.8c22.9 17.2 50.2 28.8 79.8 33.1V956h50v-81.8c29.6-4.2 56.9-15.9 79.8-33.1l57.8 57.8 35.4-35.4-57.8-57.8c17.2-22.9 28.8-50.2 33.1-79.8H927z m-131.3-7.1c-2.9 20.6-11.1 40.2-23.6 56.9l-10.8 14.5-14.5 10.8c-16.7 12.5-36.3 20.6-56.9 23.6l-17.9 2.6-17.9-2.6c-20.6-2.9-40.2-11.1-56.9-23.6l-14.5-10.8-10.8-14.5c-12.5-16.7-20.6-36.3-23.6-56.9l-2.6-17.9 2.6-17.9c2.9-20.6 11.1-40.2 23.6-56.9l10.8-14.5 14.5-10.8c16.7-12.5 36.3-20.6 56.9-23.6l17.9-2.6 17.9 2.6c20.6 2.9 40.2 11.1 56.9 23.6l14.5 10.8 10.8 14.5c12.5 16.7 20.6 36.3 23.6 56.9l2.6 17.9-2.6 17.9zM384.1 887H114V379.5h796V423h50V217H493.5L358 87H64v850h320.1v-50zM114 137h223.9l121 116.1 14.5 13.9H910v62.5H114V137z" fill="" p-id="4184"></path></svg>