<svg class="icon" style="width: 1.044921875em;height: 1em;vertical-align: middle;fill: currentColor;overflow: hidden;"
    viewBox="0 0 1070 1024" version="1.1" xmlns="http://www.w3.org/2000/svg" p-id="1283">
    <path
        d="M314.181818 325.818182a151.272727 151.272727 0 1 1 0-302.545455 151.272727 151.272727 0 0 1 0 302.545455z m0-46.545455a104.727273 104.727273 0 1 0 0-209.454545 104.727273 104.727273 0 0 0 0 209.454545zM279.272727 977.454545a139.636364 139.636364 0 1 1 0-279.272727 139.636364 139.636364 0 0 1 0 279.272727z m0-46.545454a93.090909 93.090909 0 1 0 0-186.181818 93.090909 93.090909 0 0 0 0 186.181818zM896 884.363636a151.272727 151.272727 0 1 1 0-302.545454 151.272727 151.272727 0 0 1 0 302.545454z m0-46.545454a104.727273 104.727273 0 1 0 0-209.454546 104.727273 104.727273 0 0 0 0 209.454546zM744.727273 349.090909a93.090909 93.090909 0 1 1 0-186.181818 93.090909 93.090909 0 0 1 0 186.181818z m0-46.545454a46.545455 46.545455 0 1 0 0-93.09091 46.545455 46.545455 0 0 0 0 93.09091zM116.363636 605.090909a93.090909 93.090909 0 1 1 0-186.181818 93.090909 93.090909 0 0 1 0 186.181818z m0-46.545454a46.545455 46.545455 0 1 0 0-93.09091 46.545455 46.545455 0 0 0 0 93.09091z"
        fill="currentColor" p-id="1284"></path>
    <path
        d="M622.964364 429.125818l-35.746909-29.812363 93.090909-111.662546 35.746909 29.789091zM183.109818 535.063273l6.144-46.126546 155.275637 20.619637-6.120728 46.149818zM463.592727 409.739636l-42.821818 18.338909-69.818182-162.90909 42.821818-18.33891zM367.592727 758.853818l-37.003636-28.253091 71.168-93.090909 36.980364 28.253091zM799.744 653.242182l-16.942545 43.333818-158.464-61.952 16.965818-43.357091z"
        fill="currentColor" p-id="1285"></path>
    <path
        d="M512 535.272727m-162.909091 0a162.909091 162.909091 0 1 0 325.818182 0 162.909091 162.909091 0 1 0-325.818182 0Z"
        fill="currentColor" p-id="1286"></path>
    <path
        d="M512 721.454545a186.181818 186.181818 0 1 1 0-372.363636 186.181818 186.181818 0 0 1 0 372.363636z m0-46.545454a139.636364 139.636364 0 1 0 0-279.272727 139.636364 139.636364 0 0 0 0 279.272727z"
        fill="currentColor" p-id="1287"></path>
</svg>