<svg class="icon" style="width: 1em;height: 1em;vertical-align: middle;fill: currentColor;overflow: hidden;"
    viewBox="0 0 1024 1024" version="1.1" xmlns="http://www.w3.org/2000/svg" p-id="1143">
    <path
        d="M921.3952 624.4864a51.2 51.2 0 0 0 51.2-51.2v-460.8a51.2 51.2 0 0 0-51.2-51.2h-819.2a51.2 51.2 0 0 0-51.2 51.2v460.8a51.2 51.2 0 0 0 51.2 51.2h819.2z m-177.664-326.5536a80.6912 80.6912 0 1 1 0-161.3824 80.6912 80.6912 0 0 1 0 161.3824z m-2.7648 206.6432c12.8 14.9504-22.272 26.2656-40.3456 26.2656h-403.456c-18.688 0-53.5552-10.752-40.3456-26.2656L468.48 283.136c16.5376-19.4048 43.3664-19.4048 59.904 0l212.5824 221.44zM50.9952 735.488v51.2h922.0096v-51.2H50.9952z m0 204.8h614.4v-51.2h-614.4v51.2z"
        fill="#777E8C" opacity=".3" p-id="1144"></path>
</svg>