<svg xmlns="http://www.w3.org/2000/svg" viewBox="0 0 1024 1024">
   <defs id="defs134" />

   <path
      fill="currentColor"
      d="M512 160c320 0 512 352 512 352S832 864 512 864 0 512 0 512s192-352 512-352m0 64c-225.28 0-384.128 208.064-436.8 288 52.608 79.872 211.456 288 436.8 288 225.28 0 384.128-208.064 436.8-288-52.608-79.872-211.456-288-436.8-288zm0 64a224 224 0 1 1 0 448 224 224 0 0 1 0-448m0 64a160.192 160.192 0 0 0-160 160c0 88.192 71.744 160 160 160s160-71.808 160-160-71.744-160-160-160"
      id="path128" />
   <path
      style="fill:currentColor"
      d="M 671.9614,83.995175 369.33172,970.8854"
      id="path306" />
   <path
      style="fill:currentColor"
      d="M 857.24487,87.700844 165.5199,980.76719 303.8649,802.89505"
      id="path308" />
   <rect
      style="fill:currentColor;stroke-width:1.10879"
      id="rect362"
      width="81.797424"
      height="951.12177"
      x="684.10876"
      y="-425.77521"
      ry="34.722584"
      transform="rotate(43.750763)" />
</svg>