<svg class="icon" style="width: 1em;height: 1em;vertical-align: middle;fill: currentColor;overflow: hidden;"
    viewBox="0 0 1024 1024" version="1.1" xmlns="http://www.w3.org/2000/svg" p-id="4798">
    <path
        d="M503.04 251.4432a23.552 23.552 0 0 1-19.5072-8.6016 32.512 32.512 0 0 1-7.424-22.7328V32a32.768 32.768 0 0 1 13.312-27.648 23.6544 23.6544 0 0 1 27.1872 0 32.768 32.768 0 0 1 13.312 27.648v188.1088a32.512 32.512 0 0 1-7.3728 22.7328 23.552 23.552 0 0 1-19.5072 8.6016z"
        fill="#999999" p-id="4799"></path>
    <path
        d="M636.1088 284.3136a31.7952 31.7952 0 0 1-12.9536-41.8816l96.8704-155.4944a37.376 37.376 0 0 1 45.1584-11.9296c14.9504 9.0112 20.48 26.88 12.9024 41.8304l-96.768 155.4944a37.376 37.376 0 0 1-45.2096 11.9808zM731.648 378.88a35.2256 35.2256 0 0 1-2.9184-25.2928 32.256 32.256 0 0 1 14.7456-19.8656l154.112-96.768c14.848-7.6288 32.6144-2.048 41.5232 12.9024 4.096 7.68 5.12 16.7936 2.8672 25.344a32.256 32.256 0 0 1-14.6944 19.8656L773.12 391.8336c-14.848 7.5776-32.5632 2.048-41.472-12.9024zM1014.9376 493.9264a23.552 23.552 0 0 1-8.5504 19.5584 32.4608 32.4608 0 0 1-22.784 7.4752h-188.1088a32.768 32.768 0 0 1-27.648-13.312 23.6544 23.6544 0 0 1 0-27.2384 32.768 32.768 0 0 1 27.648-13.312h188.1088a32.512 32.512 0 0 1 22.6816 7.424 23.552 23.552 0 0 1 8.704 19.456zM940.032 738.2528a31.8976 31.8976 0 0 1-41.9328 12.9024l-155.648-96.768a34.6624 34.6624 0 0 1-10.9568-44.4928c8.0384-15.5648 26.112-21.504 40.8576-13.4656l155.648 96.6656a37.376 37.376 0 0 1 12.032 45.1584zM765.5936 911.9232a34.304 34.304 0 0 1-43.776-9.0624l-96.9216-154.7776a30.208 30.208 0 0 1 9.3184-42.496 32.256 32.256 0 0 1 43.776 9.0624l96.9728 154.8288a27.136 27.136 0 0 1 5.888 23.4496 27.904 27.904 0 0 1-15.2576 18.9952zM503.04 988.0064a23.552 23.552 0 0 1-19.5072-8.6016 32.512 32.512 0 0 1-7.424-22.7328V768.512a32.768 32.768 0 0 1 13.312-27.648 23.6544 23.6544 0 0 1 27.1872 0 32.768 32.768 0 0 1 13.312 27.648v188.1088a32.512 32.512 0 0 1-7.3728 22.7328 23.552 23.552 0 0 1-19.5072 8.6016zM258.7648 913.1008a31.7952 31.7952 0 0 1-12.8-41.8816l96.768-155.4944a37.376 37.376 0 0 1 45.1584-11.9808c15.0016 9.0112 20.48 26.88 12.9536 41.8816L303.9232 901.12a37.4784 37.4784 0 0 1-45.1584 11.9808zM84.8896 738.2528a34.9696 34.9696 0 0 1-2.8672-25.2928 32.256 32.256 0 0 1 14.7968-19.8144l154.9824-96.7168c14.7456-8.0384 32.768-2.0992 40.7552 13.4656a34.7136 34.7136 0 0 1-10.9056 44.544L126.6176 751.104a31.6928 31.6928 0 0 1-41.728-12.9024zM260.4544 493.9264a23.552 23.552 0 0 1-8.6016 19.5584 32.4608 32.4608 0 0 1-22.784 7.4752H40.96a32.768 32.768 0 0 1-27.648-13.312 23.6544 23.6544 0 0 1 0-27.2384 32.768 32.768 0 0 1 27.648-13.312h188.1088a32.512 32.512 0 0 1 22.6816 7.424 23.552 23.552 0 0 1 8.704 19.456zM293.2736 378.88a31.744 31.744 0 0 1-41.8304 12.9536L95.9488 294.9632a37.376 37.376 0 0 1-11.9808-45.1584 31.7952 31.7952 0 0 1 41.8816-12.8512l155.4432 96.768a37.376 37.376 0 0 1 11.9808 45.2096zM389.376 283.136a34.9696 34.9696 0 0 1-44.3392-9.1136L246.8352 118.6816a29.7472 29.7472 0 0 1-3.072-23.8592 31.0784 31.0784 0 0 1 15.7184-18.688 30.976 30.976 0 0 1 41.1648 9.1136l98.2528 155.2896c9.472 15.2576 6.2464 36.5056-9.5232 42.6496z"
        fill="#CCCCCC" p-id="4800"></path>
</svg>