<svg class="icon" style="width: 1em;height: 1em;vertical-align: middle;fill: currentColor;overflow: hidden;"
    viewBox="0 0 1024 1024" version="1.1" xmlns="http://www.w3.org/2000/svg" p-id="3828">
    <path
        d="M877.714286 0H146.285714c-20.228571 0-36.571429 16.342857-36.571428 36.571429v950.857142c0 20.228571 16.342857 36.571429 36.571428 36.571429h731.428572c20.228571 0 36.571429-16.342857 36.571428-36.571429V36.571429c0-20.228571-16.342857-36.571429-36.571428-36.571429z m-685.714286 82.285714h640v237.714286H192V82.285714z m640 548.571429H192V393.142857h640v237.714286z m0 310.857143H192V704h640v237.714286zM274.285714 201.142857a45.714286 45.714286 0 1 0 91.428572 0 45.714286 45.714286 0 1 0-91.428572 0z m0 310.857143a45.714286 45.714286 0 1 0 91.428572 0 45.714286 45.714286 0 1 0-91.428572 0z m0 310.857143a45.714286 45.714286 0 1 0 91.428572 0 45.714286 45.714286 0 1 0-91.428572 0z"
        p-id="3829"></path>
</svg>