<svg class="icon" style="width: 1em;height: 1em;vertical-align: middle;fill: currentColor;overflow: hidden;" viewBox="0 0 1024 1024" version="1.1" xmlns="http://www.w3.org/2000/svg" p-id="10136"><path d="M832 216l-11.2 683.2c0 17.6-8 32-17.6 32H496c-9.6 0-17.6-14.4-17.6-32V102.4c0-17.6 8-32 17.6-32h220.8l115.2 145.6z" fill="#19AA8D" p-id="10137"></path><path d="M785.6 216v668.8c0 17.6-12.8 32-28.8 32H240c-16 0-28.8-14.4-28.8-32V102.4c0-17.6 12.8-32 28.8-32h467.2l78.4 145.6z" fill="#9AE8D5" p-id="10138"></path><path d="M462.4 310.4h188.8M651.2 321.6H462.4c-6.4 0-11.2-4.8-11.2-11.2s4.8-11.2 11.2-11.2h188.8c6.4 0 11.2 4.8 11.2 11.2s-6.4 11.2-11.2 11.2zM462.4 251.2h89.6M552 262.4h-89.6c-6.4 0-11.2-4.8-11.2-11.2s4.8-11.2 11.2-11.2h89.6c6.4 0 11.2 4.8 11.2 11.2s-6.4 11.2-11.2 11.2zM291.2 579.2H432M432 590.4h-139.2c-6.4 0-11.2-4.8-11.2-11.2s4.8-11.2 11.2-11.2H432c6.4 0 11.2 4.8 11.2 11.2s-6.4 11.2-11.2 11.2zM291.2 427.2H720M720 436.8H291.2c-6.4 0-11.2-4.8-11.2-11.2s4.8-11.2 11.2-11.2H720c6.4 0 11.2 4.8 11.2 11.2s-6.4 11.2-11.2 11.2zM291.2 505.6H720M720 516.8H291.2c-6.4 0-11.2-4.8-11.2-11.2s4.8-11.2 11.2-11.2H720c6.4 0 11.2 4.8 11.2 11.2s-6.4 11.2-11.2 11.2z" fill="#19AA8D" p-id="10139"></path><path d="M825.6 209.6h-126.4V60.8" fill="#CAFFF5" p-id="10140"></path><path d="M825.6 219.2h-136V60.8h20.8v137.6h115.2z" fill="#159379" p-id="10141"></path><path d="M795.2 934.4H196.8c-24 0-43.2-19.2-43.2-43.2V94.4c0-24 19.2-43.2 43.2-43.2h510.4l131.2 155.2v684.8c0 22.4-19.2 43.2-43.2 43.2zM196.8 72c-12.8 0-22.4 9.6-22.4 22.4v796.8c0 11.2 9.6 22.4 22.4 22.4h598.4c12.8 0 22.4-9.6 22.4-22.4V212.8l-120-140.8H196.8z" fill="#159379" p-id="10142"></path><path d="M326.4 811.2l-3.2-16c30.4-4.8 59.2-14.4 86.4-28.8 11.2-6.4 25.6-12.8 33.6-24-8-8-14.4-17.6-14.4-28.8 0-17.6 11.2-35.2 28.8-46.4 6.4-3.2 11.2-3.2 14.4-1.6 3.2 1.6 8 6.4 6.4 17.6-1.6 16-4.8 33.6-11.2 49.6 4.8 0 8-3.2 12.8-4.8 12.8-8 27.2-14.4 38.4-25.6v-1.6c-16-25.6-8-62.4 17.6-80l6.4-3.2 4.8 4.8c19.2 20.8 14.4 54.4 0 75.2-1.6 1.6-3.2 4.8-4.8 6.4 12.8 11.2 33.6 14.4 49.6 4.8 11.2-6.4 19.2-17.6 28.8-28.8l4.8-4.8 12.8 9.6-4.8 4.8c-9.6 12.8-19.2 25.6-33.6 32-22.4 11.2-49.6 8-67.2-8-12.8 11.2-27.2 19.2-41.6 27.2-4.8 3.2-11.2 6.4-19.2 8h-11.2c-1.6 1.6-1.6 3.2-3.2 3.2-11.2 14.4-25.6 22.4-40 28.8-28.8 14.4-59.2 24-91.2 30.4z m137.6-131.2c-9.6 6.4-19.2 17.6-17.6 30.4 0 4.8 3.2 11.2 8 16 4.8-14.4 8-30.4 9.6-46.4z m75.2-41.6c-12.8 12.8-16 33.6-8 51.2 0-1.6 1.6-1.6 1.6-3.2 9.6-12.8 14.4-33.6 6.4-48z" fill="#159379" p-id="10143"></path><path d="M332.8 251.2m-51.2 0a51.2 51.2 0 1 0 102.4 0 51.2 51.2 0 1 0-102.4 0Z" fill="#19AA8D" p-id="10144"></path><path d="M275.2 337.6c0-17.6 25.6-32 57.6-32s57.6 14.4 57.6 32" fill="#19AA8D" p-id="10145"></path><path d="M686.4 836.8a137.6 105.6 90 1 0 211.2 0 137.6 105.6 90 1 0-211.2 0Z" fill="#19AA8D" p-id="10146"></path><path d="M627.2 836.8a137.6 105.6 90 1 0 211.2 0 137.6 105.6 90 1 0-211.2 0Z" fill="#FFFFFF" p-id="10147"></path><path d="M656 836.8a137.6 105.6 90 1 0 211.2 0 137.6 105.6 90 1 0-211.2 0Z" fill="#9AE8D5" p-id="10148"></path><path d="M761.6 992c-86.4 0-156.8-70.4-156.8-156.8s70.4-156.8 156.8-156.8 156.8 70.4 156.8 156.8-72 156.8-156.8 156.8z m0-291.2c-73.6 0-134.4 60.8-134.4 134.4s60.8 134.4 134.4 134.4 134.4-60.8 134.4-134.4-60.8-134.4-134.4-134.4z" fill="#159379" p-id="10149"></path><path d="M753.6 900.8c-3.2 0-4.8-1.6-6.4-3.2-4.8-3.2-4.8-11.2-1.6-14.4l83.2-97.6c3.2-4.8 11.2-4.8 14.4-1.6 4.8 3.2 4.8 11.2 1.6 14.4L761.6 896c-3.2 3.2-6.4 4.8-8 4.8z" fill="#159379" p-id="10150"></path><path d="M753.6 900.8c-3.2 0-4.8-1.6-6.4-3.2l-64-52.8c-4.8-3.2-4.8-11.2-1.6-14.4 3.2-4.8 11.2-4.8 14.4-1.6l64 52.8c4.8 3.2 4.8 11.2 1.6 14.4-3.2 3.2-4.8 4.8-8 4.8z" fill="#159379" p-id="10151"></path></svg>