<svg class="icon" style="width: 1em;height: 1em;vertical-align: middle;fill: currentColor;overflow: hidden;"
    viewBox="0 0 1024 1024" version="1.1" xmlns="http://www.w3.org/2000/svg" p-id="8891">
    <path d="M238.5408 79.5136L0 531.584l272.256 432.6144 510.7712-19.456 238.5152-452.096L749.312 60.032z"
        fill="#832E2E" opacity=".3" p-id="8892"></path>
    <path d="M378.4704 18.3808L17.0496 379.8272l132.3008 493.7216 493.7216 132.3008 361.4464-361.4464L872.192 150.6816z"
        fill="#832E2E" opacity=".6" p-id="8893"></path>
    <path d="M510.7712 0.9728L68.1216 256.512v511.1552l442.6496 255.5648 442.6752-255.5648V256.512z" fill="#832E2E"
        opacity=".85" p-id="8894"></path>
    <path
        d="M681.984 687.6672l-1.3312-4.5824c-2.9952-9.4208-1.2032-17.6128 5.0944-22.4768 3.7632-2.9184 8.0384-5.248 11.52-8.4736 7.0912-6.5536 14.2848-13.1328 20.5568-20.48 7.296-8.4992 12.7488-18.304 17.024-28.7488a113.92 113.92 0 0 0 8.064-40.9856c0.1024-4.1728-0.8704-8.3712-1.3312-12.544a97.5104 97.5104 0 0 0-8.96-30.72 122.88 122.88 0 0 0-32.256-41.6512 127.232 127.232 0 0 0-29.696-19.6352c-10.1376-4.608-20.6592-8.4992-31.2832-11.776a128.512 128.512 0 0 0-35.6096-5.376c-7.808-0.1536-15.6672-0.0256-23.3984 0.7424a213.504 213.504 0 0 0-25.216 3.9424 145.408 145.408 0 0 0-37.7088 14.464A137.6512 137.6512 0 0 0 478.6688 489.728c-7.8336 8.96-14.2592 18.688-19.3792 29.3888a100.9152 100.9152 0 0 0-8.1408 63.744c4.2496 22.1952 15.0272 41.344 30.6432 57.6512 8.2176 8.576 17.536 15.8208 27.6736 22.144 22.9888 14.2848 48.1536 21.6576 74.9056 23.68 8.8064 0.6656 17.7408-0.256 26.624-0.5632 10.6752-0.4096 21.0432-2.56 31.2576-5.632a23.2704 23.2704 0 0 1 14.0288-0.256c8.4736 2.7136 17.024 5.1712 25.7024 7.7824m30.7968-234.9824a187.2384 187.2384 0 0 0-13.7472-34.2528 164.352 164.352 0 0 0-25.9072-36.864c-8.1152-8.6784-17.024-16.7424-26.2912-24.2176a203.776 203.776 0 0 0-64.512-34.944 357.2992 357.2992 0 0 0-37.3504-9.9072 210.2784 210.2784 0 0 0-28.16-3.6352 191.1808 191.1808 0 0 0-22.912-0.0512c-9.4976 0.4096-18.9952 1.152-28.4672 2.0992a206.6944 206.6944 0 0 0-44.2112 9.8816 236.4928 236.4928 0 0 0-41.8304 18.3296 208.512 208.512 0 0 0-39.5008 28.3136 192.128 192.128 0 0 0-36.992 45.9008 164.3008 164.3008 0 0 0-21.76 69.4272c-0.7168 9.0368 0.1536 18.2272 0.5888 27.3408 0.5888 11.9552 3.2 23.6288 7.296 34.7648 3.6608 10.0352 8.1664 19.7888 13.0304 29.2864 6.4 12.4416 14.7712 23.552 24.32 33.7664 11.6992 12.4928 24.3968 23.808 38.784 33.2288 5.376 3.5072 8.2688 9.216 7.68 15.36-0.5632 5.76-2.7648 11.4432-4.7872 16.9728-1.6896 4.608-4.1984 8.8832-6.4512 13.5936 0.7168-0.0512 1.0752-0.0256 1.3568-0.128 15.8976-5.1968 31.744-10.6496 47.744-15.488 4.7872-1.4592 10.24-2.2272 15.1296-1.6128 7.0912 0.9216 13.9008 3.6864 20.9408 5.12 8.448 1.7664 16.9728 3.0976 25.5232 4.3008 4.5568 0.64 9.216 0.6144 14.7456 0.9472-5.6064-4.5824-10.5984-8.2432-15.0784-12.4416a159.9488 159.9488 0 0 1-29.7984-37.248 129.6896 129.6896 0 0 1-17.408-55.1936 138.0608 138.0608 0 0 1 2.4576-40.448c5.632-25.5488 17.7152-47.5136 35.3024-66.56 5.3504-5.7856 11.4176-10.9568 17.4336-16.0512 9.6512-8.192 20.352-14.976 31.7952-20.224 9.6512-4.48 19.7888-8.1152 29.9008-11.4688 14.592-4.864 29.824-6.8864 45.1328-7.5008a202.1632 202.1632 0 0 1 42.624 2.6368c17.2288 2.9696 33.6384 8.192 49.408 15.5648 11.8784 5.5552 22.8608 12.6208 33.9712 21.4016M344.5504 720.768H343.808c-0.5888-0.256-1.2032-0.6656-1.792-0.6912-8.2688-0.4352-13.4144-4.7616-15.3856-12.6976-2.1504-8.5504 0.9728-15.872 5.248-22.8608 4.8128-7.936 9.8048-15.744 14.6944-23.6288-13.8752-10.24-26.6752-20.3776-37.2992-32.9216-6.0672-7.1424-12.032-14.336-17.664-21.8368a173.056 173.056 0 0 1-21.3504-38.4512 174.976 174.976 0 0 1-12.16-43.2128C257.536 520.1408 256.7168 515.84 256 511.5392V477.952c0.4864-2.944 0.8448-5.888 1.4336-8.7808 2.176-10.368 3.9168-20.8384 6.8096-30.976 3.8144-13.4656 9.6256-26.1632 16.512-38.4a194.1504 194.1504 0 0 1 27.0592-37.376c7.6544-8.192 16.0512-15.744 24.4992-23.1424 12.2368-10.752 25.9584-19.3536 40.2944-27.0592a254.3104 254.3104 0 0 1 52.736-20.992 237.824 237.824 0 0 1 44.288-8.2432C473.1904 282.7264 476.6976 282.0864 480.256 281.6h38.5536c3.4048 0.4864 6.8096 0.9216 10.24 1.4336 9.9328 1.4336 19.9936 2.2528 29.7728 4.4544 25.5232 5.7856 49.92 14.6944 72.8576 27.6224 15.0272 8.448 29.184 18.176 41.8816 29.7216 9.4976 8.704 18.5344 18.0736 26.624 28.0832a191.6416 191.6416 0 0 1 34.7648 65.28c4.5056 14.8224 7.552 29.8752 8.1152 45.3888a7.168 7.168 0 0 0 0.9472 2.8672c4.6848 8.96 9.8816 17.6896 14.0032 26.88 5.8624 13.1072 8.8576 27.008 9.3184 41.3952 0.0256 0.8448 0.4608 1.664 0.6912 2.5088v12.1344c-0.256 0.9728-0.6144 1.92-0.6912 2.8928-0.3072 3.6352-0.2048 7.3216-0.7936 10.9056a140.16 140.16 0 0 1-39.552 77.568c-6.528 6.272-13.312 12.288-20.0704 18.5344 4.7872 5.76 8.2944 12.416 9.5232 20.2752 0.6912 4.48-1.792 14.08-6.8352 17.3568-6.8096 4.4032-13.9008 4.0192-20.9408 1.8944-11.1104-3.328-22.016-7.3728-33.1008-10.9056a17.7664 17.7664 0 0 0-7.7312-0.8192c-13.4912 2.0224-26.88 4.9408-40.3968 6.3232-8.7552 0.9216-17.7152-0.256-26.624-0.4864a150.6304 150.6304 0 0 1-34.816-5.632c-3.2256-0.8704-6.5792-2.1504-9.8304-2.048-5.8112 0.1792-11.5968 1.664-17.408 1.8688-9.5488 0.3328-19.0976 0.384-28.6464 0a234.0352 234.0352 0 0 1-27.7248-2.176c-13.2096-2.0992-26.24-5.1456-39.3728-7.7568a7.1168 7.1168 0 0 0-3.2256 0c-8.4736 2.4576-16.9728 4.864-25.344 7.6544-14.4384 4.7616-28.8 9.8304-43.2128 14.6688-2.1248 0.7168-4.4288 0.8704-6.656 1.28"
        fill="#FFFFFF" p-id="8895"></path>
    <path
        d="M694.4512 564.8384c0.9472 10.9568-8.704 18.7904-18.304 18.688-11.1872-0.128-18.6112-7.7312-18.7392-18.8928-0.128-8.576 6.7072-18.8672 20.352-18.3552 7.5008 0.256 18.432 9.5744 16.6912 18.56M511.6416 564.7616c0-11.6736 6.912-18.0992 19.2512-18.2784 10.3424-0.1536 17.92 8.4736 17.7664 18.5344-0.1792 11.6736-8.2432 18.2784-18.7904 18.4832-9.6 0.1792-19.2-7.7312-18.2272-18.7392M603.008 546.5344c11.0848-1.1776 18.9952 9.7536 18.688 18.304-0.3584 10.8544-8.192 18.6368-18.688 18.688a18.5088 18.5088 0 0 1-18.6368-18.688c-0.128-9.3184 8.064-19.5328 18.6368-18.304"
        fill="#FFFFFF" p-id="8896"></path>
</svg>