<svg class="icon" style="width: 1em;height: 1em;vertical-align: middle;fill: currentColor;overflow: hidden;" viewBox="0 0 1024 1024" version="1.1" xmlns="http://www.w3.org/2000/svg" p-id="9827"><path d="M824.888889 1024H199.111111c-62.577778 0-113.777778-51.2-113.777778-113.777778V113.777778c0-62.577778 51.2-113.777778 113.777778-113.777778h455.111111l284.444445 284.444444v625.777778c0 62.577778-51.2 113.777778-113.777778 113.777778zM199.111111 56.888889c-31.288889 0-56.888889 25.6-56.888889 56.888889v796.444444c0 31.288889 25.6 56.888889 56.888889 56.888889h625.777778c31.288889 0 56.888889-25.6 56.888889-56.888889V307.2L631.466667 56.888889H199.111111z" fill="#8490B4" p-id="9828"></path><path d="M381.155556 361.244444c11.377778 11.377778 11.377778 28.444444 0 39.822223l-119.466667 119.466666c-11.377778 11.377778-28.444444 11.377778-39.822222 0-11.377778-11.377778-11.377778-28.444444 0-39.822222L341.333333 361.244444c8.533333-11.377778 28.444444-11.377778 39.822223 0zM645.688889 361.244444c-11.377778 11.377778-11.377778 28.444444 0 39.822223l119.466667 119.466666c11.377778 11.377778 28.444444 11.377778 39.822222 0 11.377778-11.377778 11.377778-28.444444 0-39.822222l-119.466667-119.466667c-11.377778-11.377778-28.444444-11.377778-39.822222 0z" fill="#8490B4" p-id="9829"></path><path d="M381.155556 642.844444c11.377778-11.377778 11.377778-28.444444 0-39.822222L261.688889 483.555556c-11.377778-11.377778-28.444444-11.377778-39.822222 0-11.377778 11.377778-11.377778 28.444444 0 39.822222L341.333333 642.844444c8.533333 11.377778 28.444444 11.377778 39.822223 0zM645.688889 642.844444c-11.377778-11.377778-11.377778-28.444444 0-39.822222l119.466667-119.466666c11.377778-11.377778 28.444444-11.377778 39.822222 0 11.377778 11.377778 11.377778 28.444444 0 39.822222l-119.466667 119.466666c-11.377778 11.377778-28.444444 11.377778-39.822222 0zM429.511111 742.4l-5.688889-2.844444c-11.377778-5.688889-17.066667-19.911111-14.222222-34.133334L540.444444 301.511111c2.844444-11.377778 17.066667-19.911111 28.444445-14.222222 2.844444 0 2.844444 0 5.688889 2.844444l5.688889 2.844445c11.377778 5.688889 17.066667 19.911111 14.222222 34.133333l-128 403.911111c-2.844444 11.377778-17.066667 19.911111-28.444445 14.222222-5.688889 0-5.688889-2.844444-8.533333-2.844444z" fill="#8490B4" p-id="9830"></path></svg>