<svg class="icon" style="width: 1.203125em;height: 1em;vertical-align: middle;fill: currentColor;overflow: hidden;" viewBox="0 0 1232 1024" version="1.1" xmlns="http://www.w3.org/2000/svg" p-id="36516"><path d="M872.168296 883.854222a39.988148 39.893333 90 1 0 79.786667 0 39.988148 39.893333 90 1 0-79.786667 0Z" fill="#2C9CFA" fill-opacity=".4" p-id="36517"></path><path d="M0 550.167704a26.197333 26.135704 90 1 0 52.271407 0 26.197333 26.135704 90 1 0-52.271407 0Z" fill="#2C9CFA" fill-opacity=".4" p-id="36518"></path><path d="M1163.809185 420.555852a17.924741 17.882074 90 1 0 35.764148 0 17.924741 17.882074 90 1 0-35.764148 0Z" fill="#2C9CFA" fill-opacity=".4" p-id="36519"></path><path d="M990.473481 995.541333a19.304296 19.26163 90 1 0 38.52326 0 19.304296 19.26163 90 1 0-38.52326 0Z" fill="#2C9CFA" fill-opacity=".4" p-id="36520"></path><path d="M1180.321185 329.547852a26.197333 26.135704 90 1 0 52.271408 0 26.197333 26.135704 90 1 0-52.271408 0Z" fill="#2C9CFA" fill-opacity=".4" p-id="36521"></path><path d="M52.276148 474.330074a13.790815 13.75763 90 1 0 27.515259 0 13.790815 13.75763 90 1 0-27.515259 0Z" fill="#2C9CFA" fill-opacity=".4" p-id="36522"></path><path d="M165.082074 843.866074a11.031704 11.003259 90 1 0 22.006519 0 11.031704 11.003259 90 1 0-22.006519 0Z" fill="#2C9CFA" fill-opacity=".4" p-id="36523"></path><path d="M412.700444 15.16563a15.16563 15.132444 90 1 0 30.264889 0 15.16563 15.132444 90 1 0-30.264889 0Z" fill="#2C9CFA" fill-opacity=".4" p-id="36524"></path><path d="M839.841185 837.428148l-149.333333 149.684148c-44.382815 44.487111-116.423111 44.567704-160.905482 0.18963a116.304593 116.304593 0 0 1-0.189629-0.18963l-110.814815-111.075555H254.554074a23.442963 23.442963 0 1 1 0-46.881185h117.271704l-44.022519-44.122075H133.494519a23.442963 23.442963 0 0 1 0-46.885925h147.531851l-137.576296-137.893926c-44.306963-44.411259-44.306963-116.309333 0-160.720593l117.532445-117.802667H394.761481a23.442963 23.442963 0 1 0 0-46.881185H307.754667l215.822222-216.324741c44.382815-44.487111 116.423111-44.567704 160.905481-0.189629l0.18963 0.189629 207.568593 208.052149h201.353481a23.442963 23.442963 0 1 1 0 46.885926h-154.581333l131.617185 131.920592c44.306963 44.411259 44.306963 116.309333 0 160.720593l-184.016593 184.443259h-112.061629a23.442963 23.442963 0 1 0 0 46.885926h65.289481z m50.266074-672.886518h319.042371a23.442963 23.442963 0 1 1 0 46.885926h-319.042371a23.442963 23.442963 0 0 1 0-46.885926z" fill="#2C9CFA" fill-opacity=".3" p-id="36525"></path><path d="M519.258074 282.453333c82.142815-16.213333 166.063407 17.901037 213.722074 86.897778 47.658667 68.987259 49.991111 159.729778 5.944889 231.092148-79.307852 6.480593-156.041481-29.904593-201.339259-95.473778a223.819852 223.819852 0 0 1-18.327704-222.492444v-0.023704z" fill="#00F0FF" opacity=".8" p-id="36526"></path><path d="M714.258963 603.818667c54.324148-61.221926 58.595556-152.163556 10.24-218.225778-48.341333-66.062222-136.163556-89.291852-210.740148-55.736889-74.571852 33.550222-115.626667 114.759111-98.512593 194.872889 17.114074 80.118519 87.74163 137.358222 169.481482 137.362963a24.794074 24.794074 0 0 1 24.765629 24.822518 24.794074 24.794074 0 0 1-24.760889 24.817778c-103.61837 0-193.564444-71.585185-217.050074-172.743111-23.48563-101.157926 25.685333-205.193481 118.65126-251.050667 92.965926-45.861926 205.202963-21.447111 270.843259 58.913186 65.640296 80.360296 67.365926 195.465481 4.15763 277.76474l57.495703 58.770963a30.042074 30.042074 0 0 1-0.199111 42.192593l-0.199111 0.199111a29.553778 29.553778 0 0 1-42.069333-0.222815l-71.585186-73.168592a30.008889 30.008889 0 0 1 0.194371-42.168889l0.199111-0.194371a29.786074 29.786074 0 0 1 9.088-6.21037z m-226.322963-176.739556h198.096593a24.794074 24.794074 0 0 1 24.760888 24.817778 24.794074 24.794074 0 0 1-24.760888 24.817778h-198.096593a24.794074 24.794074 0 0 1-24.760889-24.817778 24.794074 24.794074 0 0 1 24.760889-24.817778z m0 99.275852h123.809185a24.794074 24.794074 0 0 1 24.760889 24.817778 24.794074 24.794074 0 0 1-24.760889 24.822518h-123.809185a24.794074 24.794074 0 0 1-24.760889-24.822518 24.794074 24.794074 0 0 1 24.760889-24.817778z" fill="#2C73D2" opacity=".8" p-id="36527"></path></svg>