<svg class="icon" style="width: 1em;height: 1em;vertical-align: middle;fill: currentColor;overflow: hidden;"
    viewBox="0 0 1024 1024" version="1.1" xmlns="http://www.w3.org/2000/svg" p-id="25325">
    <path d="M450.271319 148.877617a412.14366 412.14366 0 1 0 0 824.287319 412.14366 412.14366 0 0 0 0-824.287319z"
        fill="#515151" opacity=".3" p-id="25326"></path>
    <path
        d="M544.680851 778.893617V245.106383c0-14.526638 12.707404-27.234043 27.234043-27.234043s27.234043 12.707404 27.234042 27.234043v446.638298l76.255319-107.122383c9.07983-12.707404 25.420255-14.521191 38.12766-7.260596 12.707404 9.07983 14.526638 25.420255 7.260596 38.12766l-125.276596 177.930893c-7.260596 9.074383-19.968 14.521191-30.861617 10.893617C553.760681 800.680851 544.680851 789.787234 544.680851 778.893617zM299.574468 423.037277c0-5.446809 1.813787-10.893617 5.446809-16.340426L430.297872 228.765957c7.260596-9.07983 19.973447-14.526638 30.867064-10.893617 10.893617 3.633021 18.154213 14.526638 18.154213 25.420256v533.787234c0 14.521191-12.707404 27.234043-27.234043 27.234042s-27.234043-12.712851-27.234042-27.234042V332.255319L348.595745 439.377702C339.515915 452.085106 323.175489 453.898894 310.468085 446.638298c-7.260596-7.260596-10.893617-14.526638-10.893617-23.601021z"
        fill="#515151" p-id="25327"></path>
    <path
        d="M3.633021 512C3.633021 232.398979 232.398979 3.633021 512 3.633021s508.366979 228.765957 508.366979 508.366979-228.765957 508.366979-508.366979 508.366979S3.633021 791.601021 3.633021 512z m962.265873 0C965.898894 261.446809 762.553191 58.101106 512 58.101106S58.101106 261.446809 58.101106 512 261.446809 965.898894 512 965.898894 965.898894 762.553191 965.898894 512z"
        fill="#515151" p-id="25328"></path>
</svg>