<svg class="icon" style="width: 1em;height: 1em;vertical-align: middle;fill: currentColor;overflow: hidden;" viewBox="0 0 1024 1024" version="1.1" xmlns="http://www.w3.org/2000/svg" p-id="9697"><path d="M512 512m-512 0a512 512 0 1 0 1024 0 512 512 0 1 0-1024 0Z" fill="#E09112" p-id="9698"></path><path d="M874.038 874.038c83.736-83.736 132.382-189.26 145.98-298.326l-179.596-179.596-24.834 33.326-144.284-144.284-274.23 233.738-10.344 8.044-218.388 106.654 388.42 388.42c115.74-10.096 228.698-59.398 317.276-147.976z" fill="#c5921a" p-id="9699"></path><path d="M714.09 687.794c95.666 0 173.218-77.552 173.218-173.218s-77.552-173.218-173.218-173.218c-3.29 0-6.55 0.11-9.796 0.294-23.7-67.422-87.898-115.77-163.422-115.77-66.554 0-124.304 37.554-153.314 92.604a100.812 100.812 0 0 0-34.34-5.996c-51.858 0-94.566 39.07-100.352 89.382-66.23 13.108-116.17 71.504-116.17 141.58 0 79.72 64.626 144.35 144.35 144.35h433.046v-0.008z" fill="#FFFFFF" p-id="9700"></path><path d="M714.09 341.354c-3.29 0-6.55 0.11-9.796 0.294-23.7-67.422-87.898-115.77-163.422-115.77-0.238 0-0.472 0.01-0.71 0.014v461.906h173.932c95.666 0 173.218-77.552 173.218-173.218-0.004-95.67-77.556-173.226-173.222-173.226z" fill="#D0D1D3" p-id="9701"></path><path d="M541.254 531.118l-108.606-108.6c-16.164-16.156-42.35-16.156-58.512 0l-108.606 108.6c-16.16 16.156-16.16 42.352 0 58.512 16.152 16.154 42.346 16.16 58.512 0l37.978-37.978v187.902c0 22.848 18.526 41.374 41.374 41.374 22.848 0 41.374-18.526 41.374-41.374v-187.902l37.978 37.974a41.236 41.236 0 0 0 29.254 12.12c10.588 0 21.18-4.04 29.254-12.12 16.16-16.154 16.16-42.354 0-58.508z" fill="#386895" p-id="9702"></path><path d="M541.254 531.118l-108.606-108.6a41.234 41.234 0 0 0-29.54-12.102v370.498c0.096 0 0.19 0.014 0.286 0.014 22.848 0 41.374-18.526 41.374-41.374v-187.902l37.978 37.974a41.236 41.236 0 0 0 29.254 12.12c10.588 0 21.18-4.04 29.254-12.12 16.16-16.154 16.16-42.354 0-58.508z" fill="#273B7A" p-id="9703"></path></svg>