<svg class="icon" style="width: 1em;height: 1em;vertical-align: middle;fill: currentColor;overflow: hidden;"
    viewBox="0 0 1024 1024" version="1.1" xmlns="http://www.w3.org/2000/svg" p-id="13522">
    <path
        d="M685.7 619.5c6.3-12.5 0-31.3-12.5-44-12.5-6.3-25.1-12.5-31.3-12.5 37.7-37.7 69-87.8 69-150.6 0-106.6-81.6-188.3-188.3-188.3s-188.3 81.6-188.3 188.3c0 62.8 31.3 113 75.3 150.6-119.2 44-200.8 157-200.8 288.8v31.3c0 18.8 12.5 31.3 31.3 31.3s31.3-12.5 31.3-31.3v-31.3c0-138 113-250.9 250.9-250.9 44 0 81.6 12.5 119.1 31.3 12.9 6.2 31.7 0 44.3-12.7z"
        p-id="13523"></path>
    <path d="M522.6 538c-69 0-125.5-56.5-125.5-125.5S453.6 287 522.6 287s125.5 56.5 125.5 125.5S591.6 538 522.6 538z"
        fill="#FFFFFF" p-id="13524"></path>
    <path
        d="M319.8 426c6.3-18.8-6.3-37.7-25.1-37.7-56.5-12.5-100.4-62.8-100.4-125.5 0-69 56.5-125.5 125.5-125.5 50.2 0 87.8 25.1 113 69 6.3 12.5 25.1 18.8 44 12.5s18.8-25.1 12.5-44C457.7 112.1 388.6 74.5 319.6 74.5c-106.6 0-188.3 81.6-188.3 188.3 0 62.8 31.3 113 75.3 150.6C87.4 457.3 5.9 570.3 5.9 701.9v31.3c0 18.8 12.5 31.3 31.3 31.3s31.3-12.5 31.3-31.3v-31.3c0.1-131.7 100.5-238.4 226-250.9 12.7 0 25.3-12.5 25.3-25zM938.4 754.5c-1.7-9.3-6.8-15.3-13.3-15h-1.4c-22 0-39.9-19-39.9-42.1 0-7.6 3.4-15.8 3.4-16.1 3.4-8.2 0.8-18-6.2-22.9l-0.3-0.3-38.2-22.4-0.3-0.3c-2.2-1.2-4.9-1.7-7.4-1.7-5.4 0-10.8 2.2-14.1 6.2-4.5 5.1-19.2 18.4-31.1 18.4-12.1 0-26.9-13.6-31.3-18.7-3.4-3.9-8.8-6.2-14.5-6.2-2.5 0-5.1 0.5-7.4 1.4l-0.3 0.3-39.5 22.9-0.3 0.3c-6.8 5.1-9.6 15-6.2 22.9 0 0 3.4 8.4 3.4 16.1 0 23.2-17.8 42.1-39.9 42.1h-1.4c-6.5 0-11.6 5.7-13.3 15 0 0.8-3.2 18-3.2 31.6s3.2 31.1 3.2 31.6c1.7 9.1 6.8 15 13 15h1.4c22 0 39.9 19 39.9 42.1 0 7.6-3.4 15.8-3.4 16.1-3.4 8.2-0.5 18 6.2 22.9l0.3 0.3 37.5 22 0.3 0.3c2.2 1.2 4.9 1.7 7.4 1.7 5.4 0 10.8-2.2 14.5-6.5 4.5-5.1 19.7-19.5 32-19.5 12.4 0 27.4 14.5 32.3 19.7 3.4 3.9 8.8 6.5 14.5 6.5 2.5 0 5.1-0.5 7.1-1.7l0.3-0.3 39-22.6 0.3-0.3c6.8-5.1 9.6-15 6.2-22.9 0 0-3.4-8.4-3.4-16.1 0-23.2 17.8-42.1 39.9-42.1h1.4c6.5 0 11.6-5.7 13.3-15 0-0.8 3.2-18 3.2-31.6-0.3-13.4-3.7-30.6-3.7-31.1z m-150.1 87.7c-29.1 0-52.8-25.1-52.8-56s23.7-56 52.8-56c29.1 0 52.8 25.1 52.8 56 0 30.7-23.7 56-52.8 56zM733.5 426c0 12.5 12.5 25.1 25.1 25.1 125.5 12.5 196 89.4 196 221.2v29.2c0 21.7 20.7 38 41.6 32.1 13-3.7 21.2-14.9 21.2-30v-31.3c0-130.9-50.6-213.3-168.5-257.9-1.1-0.4-1.3-1.8-0.5-2.6 42.9-37.5 73.3-87 73.3-148.9 0-106.6-81.6-188.3-188.3-188.3-69 0-138 37.7-169.3 100.3 0 0.1 0 0.1-0.1 0.3-6.2 18.8-6.2 37.5 12.6 43.8s37.7 0 44-12.5c25.1-44 62.8-69 113-69 69 0 125.5 56.5 125.5 125.5 0 62.7-43.8 112.8-100.2 125.5h-0.3c-18.9 0-31.4 18.7-25.1 37.5z"
        p-id="13525"></path>
</svg>