<svg class="icon" style="width: 1em;height: 1em;vertical-align: middle;fill: currentColor;overflow: hidden;" viewBox="0 0 1024 1024" version="1.1" xmlns="http://www.w3.org/2000/svg" p-id="6463"><path d="M946.1 340.3h-64.4v-51.8c0-45.4-38.6-84.2-83.7-84.2H444c-12.9-6.5-25.7-6.5-38.6-13L289.6 120c-19.3-13-45-25.9-70.8-25.9H90.1C38.6 94 0 139.4 0 184.8v518.4c0 45.4 38.6 84.2 83.7 84.2H148v58.3c0 45.4 38.6 84.2 83.7 84.2h707.9c45 0 83.7-38.9 83.7-84.2V431c6.4-45.4-32.2-90.7-77.2-90.7zM83.7 716.1c-6.4 6.5-19.3 0-19.3-13V184.8c0-13 12.9-19.4 19.3-19.4h128.7c12.9 0 25.7 6.5 38.6 13l115.8 71.3c25.7 6.5 51.5 13 77.2 13h347.5c12.9 0 19.3 13 19.3 19.4v414.7c0 13-12.9 19.4-19.3 19.4H83.7z m881.7 129.6c0 13-12.9 19.4-19.3 19.4h-708c-12.9 0-19.3-13-19.3-19.4v-58.3H798c45.1 0 83.7-38.9 83.7-84.2V405.1h64.4c12.9 0 19.3 13 19.3 19.4v421.2zM222.1 345l-96.5 271.5h60.9l19.4-62.2h95.8l19.7 62.2h61.2L288.1 345h-66z m-3.9 164.6l30.1-94.8c2.4-7.4 3.9-15 4.6-23h1.5c0.8 9.8 2.2 17.7 4.1 23.7l29.9 94.1h-70.2z m263-164.6H425v271.5h154.6v-47.3h-98.5V345z m193.6 0h-56.1v271.5h154.6v-47.3h-98.5V345z" fill="currentColor" p-id="6464"></path></svg>