<svg class="icon" style="width: 1em;height: 1em;vertical-align: middle;fill: currentColor;overflow: hidden;" viewBox="0 0 1024 1024" version="1.1" xmlns="http://www.w3.org/2000/svg" p-id="6726"><path d="M852.05 49.55c-7.23-8.35-19.86-9.26-28.21-2.03-8.35 7.23-9.26 19.86-2.03 28.21l59.94 69.21H663.61c-11.05 0-20 8.95-20 20s8.95 20 20 20h218.14l-59.93 69.2c-7.23 8.35-6.32 20.98 2.03 28.21 3.78 3.28 8.44 4.88 13.08 4.88 5.6 0 11.17-2.34 15.13-6.91l88.59-102.3c6.51-7.52 6.51-18.67 0-26.19l-88.6-102.28zM145.16 184.94H363.3c11.05 0 20-8.95 20-20s-8.95-20-20-20H145.16l59.93-69.2c7.23-8.35 6.32-20.98-2.03-28.21s-20.98-6.33-28.21 2.03l-88.59 102.3c-6.51 7.52-6.51 18.67 0 26.19l88.59 102.3c3.96 4.57 9.53 6.91 15.13 6.91 4.64 0 9.3-1.61 13.08-4.88 8.35-7.23 9.26-19.86 2.03-28.21l-59.93-69.23zM852.86 465.72c-14.32 0-27.73 3.94-39.21 10.79-8.61-32.95-38.63-57.33-74.25-57.33-14.13 0-27.37 3.84-38.75 10.52-7.96-33.88-38.43-59.18-74.7-59.18-13.3 0-25.81 3.4-36.73 9.38V221.67c0-42.31-34.42-76.73-76.73-76.73s-76.73 34.42-76.73 76.73v356.79l-76.21-76.21c-14.49-14.49-33.76-22.47-54.25-22.47s-39.76 7.98-54.25 22.47c-29.92 29.92-29.92 78.59 0 108.51l19.55 19.55c44.16 44.16 68.48 102.87 68.48 165.33 0 103.12 83.89 187.01 187.01 187.01h216.49c103.12 0 187.01-83.89 187.01-187.01V542.45c0-42.31-34.42-76.73-76.73-76.73z m36.73 329.92c0 81.06-65.95 147.01-147.01 147.01H526.09c-81.06 0-147.01-65.95-147.01-147.01 0-36.14-7.01-71.39-20.84-104.78s-33.8-63.28-59.35-88.83l-19.55-19.55c-14.32-14.32-14.32-37.62 0-51.94 6.94-6.94 16.16-10.76 25.97-10.76s19.03 3.82 25.97 10.76l110.35 110.35a19.995 19.995 0 0 0 21.8 4.33 20.016 20.016 0 0 0 12.35-18.48V221.67c0-20.25 16.48-36.73 36.73-36.73 20.25 0 36.73 16.48 36.73 36.73v225.58c0 1.35 0.14 2.66 0.39 3.94V580.3c0 11.05 8.95 20 20 20s20-8.95 20-20V441.91c2.59-17.73 17.9-31.39 36.33-31.39 20.25 0 36.73 16.48 36.73 36.73v185.22c0 11.05 8.95 20 20 20s20-8.95 20-20V495.9c0-20.25 16.48-36.73 36.73-36.73 20.25 0 36.73 16.48 36.73 36.73v1.31a20.23 20.23 0 0 0-0.31 3.42v159.3c0 11.05 8.95 20 20 20s20-8.95 20-20V545.87c0.19-1.11 0.31-2.25 0.31-3.42 0-20.25 16.48-36.73 36.73-36.73 20.25 0 36.73 16.48 36.73 36.73v253.19z" p-id="6727"></path></svg>
