<svg class="icon" style="width: 1em;height: 1em;vertical-align: middle;fill: currentColor;overflow: hidden;" viewBox="0 0 1024 1024" version="1.1" xmlns="http://www.w3.org/2000/svg" p-id="1514"><path d="M509.583787 170.666667c124.8 0 225.92 100.437333 225.92 224.298666a223.658667 223.658667 0 0 1-100.394667 186.538667c103.381333 35.541333 196.309333 116.394667 217.813333 237.482667a29.269333 29.269333 0 0 1-29.013333 34.346666 29.44 29.44 0 0 1-29.013333-24.192c-27.178667-152.874667-186.410667-209.877333-280.362667-209.877333l-1.152-0.085333-3.797333 0.085333c-93.952 0-253.184 57.002667-280.362667 209.92a29.44 29.44 0 0 1-34.133333 23.68 29.269333 29.269333 0 0 1-23.893334-33.877333c21.290667-119.850667 112.554667-200.277333 214.613334-236.373334a223.488 223.488 0 0 1-102.101334-187.648C283.706453 271.104 384.826453 170.666667 509.583787 170.666667z m0 58.496c-92.074667 0-166.954667 74.410667-166.954667 165.802666 0 91.434667 74.88 165.802667 166.954667 165.802667s166.997333-74.368 166.997333-165.802667c0-91.392-74.922667-165.802667-166.997333-165.802666z" p-id="1515"></path></svg>