<svg class="icon" style="width: 1.1943359375em;height: 1em;vertical-align: middle;fill: currentColor;overflow: hidden;" viewBox="0 0 1223 1024" version="1.1" xmlns="http://www.w3.org/2000/svg" p-id="3525"><path d="M1125.900488 653.736585l-118.709073-82.419512v-196.058536l118.709073-81.795122v360.27317z m-1027.396683 144.858537v-699.317073h811.40761V749.268293c0 0.62439 0.599415 1.24878 0.599414 1.87317V799.219512l-812.007024-0.62439z m1098.97678-643.121951a48.35278 48.35278 0 0 0-50.151024 2.497561L1007.765854 254.75122V99.902439c0-54.946341-44.056976-99.902439-97.904391-99.902439H98.553756C44.032 0 0.599415 44.331707 0 99.902439v699.317073c0 54.946341 44.056976 99.902439 97.90439 99.902439h811.382634c53.847415 0 97.90439-44.956098 97.904391-99.902439v-66.809756l0.62439-39.960976 138.889366 97.404879c15.310049 9.990244 34.266537 11.239024 50.80039 3.121951A49.501659 49.501659 0 0 0 1223.804878 748.643902v-549.463414c0-18.107317-9.790439-35.590244-26.299317-43.707317z" p-id="3526"></path><path d="M799.219512 774.243902m-249.756097 0a249.756098 249.756098 0 1 0 499.512195 0 249.756098 249.756098 0 1 0-499.512195 0Z" p-id="3527"></path><path d="M799.219512 774.243902m-199.804878 0a199.804878 199.804878 0 1 0 399.609756 0 199.804878 199.804878 0 1 0-399.609756 0Z" fill="#ED4E4E" p-id="3528"></path><path d="M674.341463 749.268293l249.756098 0 0 49.951219-249.756098 0 0-49.951219Z" fill="#ffffff" p-id="3529"></path><path d="M274.581854 199.804878c-26.923707 0-51.949268 14.360976-64.437074 37.463415a73.128585 73.128585 0 0 0 0 74.926829c13.736585 23.102439 38.162732 37.463415 64.437074 37.463415A74.427317 74.427317 0 0 0 349.658537 274.731707c-0.62439-41.209756-33.792-74.926829-75.076683-74.926829" p-id="3530"></path></svg>