<svg class="icon" style="width: 1em;height: 1em;vertical-align: middle;fill: currentColor;overflow: hidden;"
    viewBox="0 0 1024 1024" version="1.1" xmlns="http://www.w3.org/2000/svg" p-id="7249">
    <path
        d="M512 0C230.4 0 0 230.4 0 512s230.4 512 512 512 512-230.4 512-512S793.6 0 512 0z m0 937.6c-233.6 0-425.6-192-425.6-425.6S278.4 86.4 512 86.4s425.6 192 425.6 425.6-192 425.6-425.6 425.6z m249.6-652.8H704c-6.4 0-9.6 3.2-9.6 9.6v438.4c0 6.4 3.2 9.6 9.6 9.6h57.6c6.4 0 9.6-3.2 9.6-9.6V291.2c0-3.2-6.4-6.4-9.6-6.4z m-323.2 54.4c57.6 0 96 35.2 99.2 89.6 0 6.4 3.2 9.6 9.6 9.6H608c3.2 0 6.4-3.2 6.4-6.4 0-92.8-73.6-156.8-172.8-156.8-118.4 0-185.6 80-185.6 211.2V544c0 131.2 67.2 208 185.6 208 99.2 0 172.8-64 172.8-150.4 0-3.2-3.2-6.4-6.4-6.4h-60.8c-6.4 0-9.6 3.2-9.6 9.6-3.2 48-41.6 83.2-99.2 83.2-70.4 0-108.8-51.2-108.8-144v-57.6c0-96 41.6-147.2 108.8-147.2z"
        fill="#333333" p-id="7250"></path>
</svg>