<svg class="icon" style="width: 1em;height: 1em;vertical-align: middle;fill: currentColor;overflow: hidden;" viewBox="0 0 1024 1024" version="1.1" xmlns="http://www.w3.org/2000/svg" p-id="11057"><path d="M512 1009.777778C238.933333 1009.777778 14.222222 785.066667 14.222222 512S238.933333 14.222222 512 14.222222 1009.777778 238.933333 1009.777778 512 785.066667 1009.777778 512 1009.777778z" fill="#FFFFFF" p-id="11058"></path><path d="M512 28.444444c267.377778 0 483.555556 216.177778 483.555556 483.555556s-216.177778 483.555556-483.555556 483.555556S28.444444 779.377778 28.444444 512 244.622222 28.444444 512 28.444444m0-28.444444C230.4 0 0 230.4 0 512s230.4 512 512 512 512-230.4 512-512S793.6 0 512 0z" fill="currentColor" p-id="11059"></path></svg>