<svg class="icon" style="width: 1em;height: 1em;vertical-align: middle;fill: currentColor;overflow: hidden;"
    viewBox="0 0 1024 1024" version="1.1" xmlns="http://www.w3.org/2000/svg" p-id="4539">
    <path
        d="M396.498462 680.923077a104.873846 104.873846 0 1 0 104.873846 104.873846 104.996923 104.996923 0 0 0-104.873846-104.873846z"
        fill="#7E52F3" p-id="4540"></path>
    <path
        d="M396.498462 623.076923c-89.723077 0-162.72 72.996923-162.72 162.72s72.996923 162.72 162.72 162.72 162.72-72.996923 162.72-162.72-72.996923-162.72-162.72-162.72z m0 267.593846a104.873846 104.873846 0 1 1 104.873846-104.873846 104.996923 104.996923 0 0 1-104.873846 104.873846zM81.593846 475.766154a28.923077 28.923077 0 1 1 0-57.846154 28.615385 28.615385 0 0 1 28.923077 28.923077 28.96 28.96 0 0 1-28.923077 28.923077zM602.947692 106.473846H186.172308a25.76 25.76 0 0 0-25.723077 25.723077V548.923077a25.747692 25.747692 0 0 0 25.723077 25.723077H602.947692A25.747692 25.747692 0 0 0 628.670769 548.923077V132.196923a25.747692 25.747692 0 0 0-25.723077-25.723077z m-25.390769 417.107692h-365.661538V157.932308h365.661538zM81.593846 1024a27.643077 27.643077 0 0 1-27.618461-27.618462V525.538462a27.618462 27.618462 0 0 1 55.236923 0v443.2H684.178462V55.236923H109.2v313.267692a27.618462 27.618462 0 0 1-55.236923 0v-340.923077A27.643077 27.643077 0 0 1 81.593846 0h630.153846a27.643077 27.643077 0 0 1 27.618462 27.618462v834.461538h10.781538a42.24 42.24 0 0 0 42.19077-42.190769v-363.076923a51.2 51.2 0 0 1-23.655385-42.953846V228.172308a127.286154 127.286154 0 0 1 127.655385-121.907693h13.193846a61.809231 61.809231 0 0 1 61.784615 61.735385V300.307692a61.809231 61.809231 0 0 1-61.784615 61.686154h-13.144616a129.230769 129.230769 0 0 1-25.513846-2.461538v54.756923a51.175385 51.175385 0 0 1-23.655384 42.867692V820.307692a97.538462 97.538462 0 0 1-97.415385 97.427693h-10.781539v78.646153A27.643077 27.643077 0 0 1 711.378462 1024z m787.175385-857.575385a73.009231 73.009231 0 0 0 0 135.015385z"
        fill="" p-id="4541"></path>
    <path
        d="M211.895385 157.932308v365.661538h365.661538v-365.661538z m147.347692 210.227692a15.175385 15.175385 0 0 1-21.550769 0l-49.981539-49.981538A15.243077 15.243077 0 1 1 309.261538 296.615385l50.276924 50.276923a15.076923 15.076923 0 0 1-0.295385 21.267692z m35.310769 35.310769a15.236923 15.236923 0 1 1 0-21.550769 15.175385 15.175385 0 0 1 0 21.550769z m85.292308 85.292308a15.163077 15.163077 0 0 1-21.550769 0L407.723077 438.153846a15.238154 15.238154 0 0 1 21.550769-21.550769l50.584616 50.584615c5.673846 5.723077 5.673846 15.606154-0.012308 21.587693z m21.550769-85.292308a15.175385 15.175385 0 0 1-21.550769 0L290.701538 214.326154a15.238154 15.238154 0 0 1 21.55077-21.550769l189.144615 189.156923a15.175385 15.175385 0 0 1 0 21.538461z"
        fill="#A6BAFB" p-id="4542"></path>
</svg>