<svg class="icon" style="width: 1em;height: 1em;vertical-align: middle;fill: currentColor;overflow: hidden;" viewBox="0 0 1024 1024" version="1.1" xmlns="http://www.w3.org/2000/svg" p-id="4497"><path d="M0 0h1024v1024H0V0z" fill="#202425" opacity=".01" p-id="4498"></path><path d="M122.402133 423.7312a68.266667 68.266667 0 0 1 0-96.529067l204.8-204.8A68.266667 68.266667 0 0 1 443.733333 170.666667v682.666666a68.266667 68.266667 0 1 1-136.533333 0V335.4624l-88.2688 88.2688a68.266667 68.266667 0 0 1-96.529067 0z" fill="#11AA66" p-id="4499"></path><path d="M901.597867 600.2688a68.266667 68.266667 0 0 1 0 96.529067l-204.8 204.8A68.266667 68.266667 0 0 1 580.266667 853.333333V170.666667a68.266667 68.266667 0 1 1 136.533333 0v517.870933l88.2688-88.2688a68.266667 68.266667 0 0 1 96.529067 0z" fill="#FFAA44" p-id="4500"></path></svg>