<svg class="icon" style="width: 1em;height: 1em;vertical-align: middle;fill: currentColor;overflow: hidden;"
    viewBox="0 0 1024 1024" version="1.1" xmlns="http://www.w3.org/2000/svg" p-id="2591">
    <path
        d="M804.266667 868.266667H219.733333c-25.6 0-44.8-19.2-44.8-44.8V194.133333c0-25.6 21.333333-44.8 44.8-44.8h584.533334c25.6 0 44.8 19.2 44.8 44.8v629.333334c0 23.466667-21.333333 44.8-44.8 44.8z m0 0"
        fill="#BAE7FF" p-id="2592"></path>
    <path
        d="M663.466667 661.333333c-19.2 61.866667-78.933333 106.666667-151.466667 106.666667-72.533333 0-130.133333-44.8-151.466667-106.666667H108.8c-14.933333 0-23.466667 8.533333-23.466667 21.333334v213.333333c0 12.8 8.533333 21.333333 23.466667 21.333333H917.333333c12.8 0 23.466667-8.533333 23.466667-21.333333V682.666667c0-12.8-8.533333-21.333333-23.466667-21.333334H663.466667z m0 0"
        fill="#2B7CD3" p-id="2593"></path>
    <path d="M512 640l-170.666667-192h341.333334" fill="#41A5EE" p-id="2594"></path>
    <path
        d="M917.333333 917.333333H106.666667c-12.8 0-21.333333-8.533333-21.333334-21.333333v-42.666667h853.333334v42.666667c0 12.8-8.533333 21.333333-21.333334 21.333333z"
        fill="#185ABD" p-id="2595"></path>
    <path d="M448 64h128v85.333333h-128z" fill="#103F91" p-id="2596"></path>
    <path d="M448 149.333333h128v128h-128z" fill="#185ABD" p-id="2597"></path>
    <path d="M448 277.333333h128v128h-128z" fill="#2B7CD3" p-id="2598"></path>
    <path d="M448 405.333333h128v42.666667h-128z" fill="#41A5EE" p-id="2599"></path>
</svg>