<svg class="icon" style="width: 1em;height: 1em;vertical-align: middle;fill: currentColor;overflow: hidden;" viewBox="0 0 1024 1024" version="1.1" xmlns="http://www.w3.org/2000/svg" p-id="2036"><path d="M197.12 896h629.76c11.264 0 20.992 7.168 24.576 17.408V352.256l-191.488-184.32h-488.448V922.112c-0.512-14.336 11.264-26.112 25.6-26.112z m-26.112 38.4h1.024c-0.512-2.56-1.024-4.608-1.024-7.168v7.168z" fill="#FFFFFF" p-id="2037"></path><path d="M850.944 913.408c-3.584-10.24-13.312-17.408-24.576-17.408h-629.76c-14.336 0-26.112 11.776-26.112 26.624v4.608c0 2.56 0.512 5.12 1.024 7.168 3.072 11.264 12.8 19.456 25.088 19.456h629.76c14.336 0 26.112-11.776 26.112-26.624v-4.608c0.512-3.584-0.512-6.656-1.536-9.216z" fill="#FFFFFF" p-id="2038"></path><path d="M535.04 388.096h249.344v28.672h-249.344v-28.672z m0 57.856h249.344v28.672h-249.344V445.952z m0 57.344h249.344v28.672h-249.344v-28.672z m0 47.616h249.344v28.672h-249.344v-28.672z m0 67.072h131.584v28.672h-131.584v-28.672z" fill="#ADB7B6" p-id="2039"></path><path d="M238.08 685.056h545.792v28.672h-545.792v-28.672z" fill="#848A8A" p-id="2040"></path><path d="M238.08 780.8h249.344v24.064h-249.344v-24.064z m0 48.128h249.344v24.064h-249.344v-24.064z m296.96-48.128h249.344v24.064h-249.344v-24.064z m0 48.128h249.344v24.064h-249.344v-24.064z" fill="#ADB7B6" p-id="2041"></path><path d="M659.456 167.936v181.76h191.488l-191.488-181.76z" fill="#F0F0F0" p-id="2042"></path><path d="M238.08 378.88h249.344v249.344h-249.344v-249.344z" fill="#4C919B" p-id="2043"></path><path d="M238.08 235.008h421.376v86.016h-421.376v-86.016z" fill="#D57B3E" p-id="2044"></path><path d="M238.08 627.712h238.592V599.552s-11.776-28.672-22.528-46.592c-8.192-13.312-19.968-16.896-30.72-0.512l-18.944 25.088-40.96-73.216c-15.36-27.136-40.448-27.136-55.296 0l-70.144 123.392z" fill="#4D5B71" p-id="2045"></path><path d="M400.896 445.952c0 15.872 12.8 28.672 28.672 28.672 15.872 0 28.672-12.8 28.672-28.672 0-15.872-12.8-28.672-28.672-28.672-15.872-0.512-28.672 12.8-28.672 28.672 0-0.512 0 0 0 0z" fill="#EECA86" p-id="2046"></path></svg>