<svg class="icon" style="width: 1em;height: 1em;vertical-align: middle;fill: currentColor;overflow: hidden;"
    viewBox="0 0 1024 1024" version="1.1" xmlns="http://www.w3.org/2000/svg" p-id="4137">
    <path d="M668.5 461a76.2 76.2 0 1 0 152.4 0 76.2 76.2 0 1 0-152.4 0z" fill="#89B3F2" p-id="4138"></path>
    <path d="M744.7 540.4C674.2 540.4 617 662.7 617 739h255.3c0-76.3-57.1-198.6-127.6-198.6z" fill="#3878D9"
        p-id="4139"></path>
    <path d="M203.1 461a76.2 76.2 0 1 0 152.4 0 76.2 76.2 0 1 0-152.4 0z" fill="#89B3F2" p-id="4140"></path>
    <path d="M279.3 540.4c-70.5 0-127.6 122.3-127.6 198.6H407c0-76.3-57.2-198.6-127.7-198.6z" fill="#3878D9"
        p-id="4141"></path>
    <path d="M370.9 316.6a141.1 141.1 0 1 0 282.2 0 141.1 141.1 0 1 0-282.2 0z" fill="#6196E6" p-id="4142"></path>
    <path d="M512 463.5c-130.5 0-236.2 178.9-236.2 384.9h472.4c0-206-105.7-384.9-236.2-384.9z" fill="#6196E6"
        p-id="4143"></path>
</svg>