<svg class="icon" style="width: 1em;height: 1em;vertical-align: middle;fill: currentColor;overflow: hidden;" viewBox="0 0 1024 1024" version="1.1" xmlns="http://www.w3.org/2000/svg" p-id="10288"><path d="M889.04 870c0 52.16-170.72 94.48-381.36 94.48s-381.36-42.32-381.36-94.48 170.8-94.56 381.36-94.56 381.36 42.32 381.36 94.56z" fill="#B8CBCD" p-id="10289"></path><path d="M634.32 139.84a84.56 84.56 0 0 0-53.92-23.36H270.32a32 32 0 0 0-32 32v671.12a32 32 0 0 0 32 32l496 0.72a32 32 0 0 0 32-32V346.48a94 94 0 0 0-21.84-55.36z" fill="#F6E89A" p-id="10290"></path><path d="M782.32 356.48h-184a16 16 0 0 1-16-16v-200a16 16 0 0 1 32 0v184h168a16 16 0 1 1 0 32z" fill="#8D4520" p-id="10291"></path><path d="M390.4 644.48l123.44 120 124.56-120h-80v-208h-88v208h-80z" fill="#FFFFFF" p-id="10292"></path><path d="M513.84 780.48a16 16 0 0 1-11.12-4.48L379.2 656a16 16 0 0 1-3.68-17.52 16 16 0 0 1 14.8-10h64v-192a16 16 0 0 1 16-16h88a16 16 0 0 1 16 16v192h64A16 16 0 0 1 649.44 656L524.96 776a16 16 0 0 1-11.12 4.48z m-84.08-120l84.16 81.76 84.8-81.76h-40a16 16 0 0 1-16-16v-192h-56v192a16 16 0 0 1-16 16z" fill="#8D4520" p-id="10293"></path><path d="M766.4 876.48l-496-0.72a56 56 0 0 1-56-56v-671.2a56 56 0 0 1 56-56h310a108.64 108.64 0 0 1 71.44 30.96l142.08 151.2a117.2 117.2 0 0 1 28.4 72v474a56 56 0 0 1-56 56z m0-48a8 8 0 0 0 5.68-2.4 8 8 0 0 0 2.32-5.52V346.56a70.24 70.24 0 0 0-15.36-38.96L616.8 156.32a56.56 56.56 0 0 0-34.48-16h-312a8 8 0 0 0-8 8v671.12a8.88 8.88 0 0 0 8 8.8z" fill="#8D4520" p-id="10294"></path></svg>