<svg class="icon" style="width: 1em;height: 1em;vertical-align: middle;fill: currentColor;overflow: hidden;" viewBox="0 0 1024 1024" version="1.1" xmlns="http://www.w3.org/2000/svg" p-id="11099"><path d="M566 931.2c-1.4 0-2.8 0-4.1-0.1-54.1-1.7-100.1-36-117.1-87.3l-58-174.7c-3.7-11.1-12.5-19.9-23.6-23.6L184 586c-51-16.9-85.2-62.6-87.3-116.2-2.1-53.7 28.6-101.8 78.1-122.6l575.8-241.7c48.4-20.3 101.7-10 139 26.8 37.4 36.9 48.4 90 28.7 138.6L684.2 851.3c-19.7 48.9-65.8 79.9-118.2 79.9z m-35.5-115.9c7.6 22.9 28.1 25.3 34.2 25.5 6.3-0.2 26.7-0.9 35.7-23.3l234.2-580.4c8.6-21.4-4.2-36.4-8.4-40.5-4.1-4.1-19.3-16.8-40.6-7.8L209.8 430.5c-22.1 9.3-23.1 29.7-22.8 35.8 0.2 6.1 2.8 26.4 25.5 33.9l179.1 59.5c38 12.6 68.2 42.9 80.9 80.9l58 174.7z" fill="#333333" p-id="11100"></path></svg>