<svg class="icon" style="width: 1em;height: 1em;vertical-align: middle;fill: currentColor;overflow: hidden;" viewBox="0 0 1024 1024" version="1.1" xmlns="http://www.w3.org/2000/svg" p-id="8829"><path d="M22.690957 338.431111l0 484.497092 972.386539 0 0-484.497092L22.690957 338.431111zM957.448326 791.874895 54.342585 791.874895l0-423.338754 903.105741 0L957.448326 791.874895z" fill="#EDC87E" p-id="8830"></path><path d="M80.665788 394.8791l0 366.893587 852.322024 0 0-366.893587L80.665788 394.8791zM362.702533 729.514274l-91.178701-119.085191c-5.619116-7.38585-10.470579-14.641876-14.557209-21.762434l-1.275661 0c-4.938952 8.057548-10.216575 15.313574-15.835692 21.762434l-92.711187 119.085191L114.451043 729.514274l124.890577-157.371948-117.484971-154.752893 32.947044 0 88.370554 117.270479c4.597459 6.180746 9.361431 13.168657 14.303205 20.958091l1.278483 0 14.557209-20.958091 87.856903-117.270479 31.925387 0-118.763454 154.34931 121.314776 157.772709L362.702533 729.511452zM680.680738 729.514274l-91.181523-119.085191c-5.616294-7.38585-10.470579-14.641876-14.557209-21.762434l-1.275661 0c-4.941774 8.057548-10.216575 15.313574-15.835692 21.762434l-92.711187 119.085191L432.426426 729.514274l124.890577-157.371948-117.484971-154.752893 32.947044 0 88.370554 117.270479c4.597459 6.180746 9.361431 13.168657 14.300383 20.958091l1.278483 0 14.557209-20.958091 87.859725-117.270479 31.925387 0-118.760632 154.34931 121.314776 157.772709L680.680738 729.511452z" fill="#4D82B8" p-id="8831"></path><path d="M662.903332 853.0671l105.941934 0 1.114792-549.448546-42.757214 0-64.29669 0L662.906154 255.801031c49.37541 2.080004 126.380729 0 174.567968 0 40.157914 0 104.810209 2.080004 137.531472 0l0 47.814701-62.699292 0-39.841821 0-4.035829 549.448546 106.576942 0 0 36.525668L662.903332 889.589946 662.903332 853.0671z" fill="#808080" p-id="8832"></path></svg>