<svg class="icon" style="width: 1em;height: 1em;vertical-align: middle;fill: currentColor;overflow: hidden;" viewBox="0 0 1024 1024" version="1.1" xmlns="http://www.w3.org/2000/svg" p-id="2223"><path d="M800 320h-94V160c0-52.8-43.2-96-96-96H414c-52.8 0-96 43.2-96 96v160h-94c-35.2 0-64 28.8-64 64v512c0 35.2 28.8 64 64 64h576c35.2 0 64-28.8 64-64V384c0-35.2-28.8-64-64-64zM382 160c0-11.4 5.9-19 9.5-22.5 3.5-3.5 11.2-9.5 22.5-9.5h196c11.4 0 19 5.9 22.5 9.5 3.5 3.5 9.5 11.2 9.5 22.5v160H382V160z m418 735.9l-575.9 0.1-0.1-0.1V384.1l0.1-0.1h575.8l0.1 0.1v511.8zM512 512c-30.9 0-56 25.1-56 56 0 19 9.5 35.8 24 45.9V784c0 17.7 14.3 32 32 32s32-14.3 32-32V613.9c14.5-10.1 24-26.9 24-45.9 0-30.9-25.1-56-56-56z" p-id="2224"></path></svg>