<svg class="icon" style="width: 1em;height: 1em;vertical-align: middle;fill: currentColor;overflow: hidden;" viewBox="0 0 1024 1024" version="1.1" xmlns="http://www.w3.org/2000/svg" p-id="2268"><path d="M853.333333 170.666667H170.666667a85.333333 85.333333 0 0 0-85.333334 85.333333v512a85.333333 85.333333 0 0 0 85.333334 85.333333h682.666666a85.333333 85.333333 0 0 0 85.333334-85.333333V256a85.333333 85.333333 0 0 0-85.333334-85.333333z m0 85.333333v123.733333l-313.6 219.733334a48.64 48.64 0 0 1-55.466666 0L170.666667 379.733333V256zM170.666667 768v-298.666667l270.933333 189.44a122.88 122.88 0 0 0 140.8 0L853.333333 469.333333v298.666667z" p-id="2269"></path></svg>