<svg class="icon" style="width: 1em;height: 1em;vertical-align: middle;fill: currentColor;overflow: hidden;"
    viewBox="0 0 1024 1024" version="1.1" xmlns="http://www.w3.org/2000/svg" p-id="68646">
    <path
        d="M566.67 100.47c6.37 0 12.32 2.1 17.7 6.25L787.96 263.7c8.21 6.35 12.45 16.34 11.2 26.84-0.99 8.3-6.01 15.6-12.63 20.71L584.42 467.5c-5.38 4.16-11.33 6.27-17.7 6.27-13.79 0-28.51-10.27-29.5-27.49-0.02-0.56-0.05-1.11-0.09-1.67V404.35c0-20.46-16.76-36.84-37.21-36.74-117.11 0.57-225.26 58.71-293.67 155.12-0.02-1.61-0.04-3.23-0.04-4.85 0-144.74 98.78-271.83 234.83-302.19 19.64-4.35 39.54-6.66 59.17-6.86 20.25-0.21 36.81-16.49 36.81-36.73v-42.31 0.43c0.04-0.8 0.08-1.6 0.1-2.44 1.03-17.1 15.76-27.31 29.55-27.31m-29.54 26.15h0.05-0.05M566.67 65c-32.61 0-63.33 24.97-65.02 61.62v0.11c0 1.02-0.11 2.04-0.11 3.06v42.34c0 0.68-0.55 1.22-1.22 1.23-22.94 0.2-45.33 2.91-66.96 7.71-149.98 33.47-262.63 171.19-262.63 336.82 0 27.34 3.06 52.64 8.4 77.26 0.56 2.59 1.14 5.17 1.75 7.75 2.26 9.54 15.32 10.78 19.32 1.82 2.55-5.72 5.25-11.37 8.09-16.95 55.4-108.99 164.78-184.18 292.09-184.69 0.7 0 1.28 0.57 1.28 1.28v40.02c0 1.02 0 2.04 0.11 3.06v0.11c1.69 36.7 32.37 61.69 64.95 61.69 13.45 0 27.22-4.25 39.42-13.7L809.66 338.2c33.58-25.98 33.58-76.58 0-102.55L606.03 78.63C593.85 69.23 580.1 65 566.67 65z"
        fill="#231815" p-id="68647"></path>
    <path
        d="M193.7 577.34c-3.51-19.93-5.23-39.5-5.23-59.45 0-152.97 104.62-287.35 248.76-319.51 21.34-4.73 43.02-7.19 64.4-7.28 9.76-0.05 17.65-7.98 17.65-17.74v-43.57c0.07-1.38 0.11-2.22 0.11-3.06 1.27-27.28 25.04-44 47.28-44 10.23 0 20.1 3.44 28.52 9.95l203.64 157.01c11.6 8.99 18.28 22.56 18.28 37.23 0 14.68-6.68 28.25-18.3 37.25L595.29 481.51c-8.45 6.54-18.32 10-28.57 10-22.21 0-45.95-16.75-47.23-44.76-0.01-0.39-0.04-0.88-0.09-1.27v-42.39c0-9.8-7.94-17.74-17.74-17.74-128.9 0-246.66 73.49-307.96 191.99z"
        fill="#B5D3EB" p-id="68648"></path>
    <path
        d="M456.64 925.53c-6.37 0-12.32-2.1-17.7-6.25L235.36 762.3c-8.21-6.35-12.45-16.34-11.2-26.84 0.99-8.3 6.01-15.6 12.63-20.71l202.1-156.25c5.38-4.16 11.33-6.27 17.7-6.27 13.79 0 28.51 10.27 29.5 27.49 0.02 0.56 0.05 1.11 0.09 1.67V621.65c0 20.46 16.75 36.84 37.21 36.74 117.11-0.57 225.26-58.71 293.67-155.12 0.02 1.61 0.04 3.23 0.04 4.85 0 144.74-98.78 271.83-234.83 302.19-19.64 4.35-39.54 6.66-59.17 6.86-20.25 0.21-36.81 16.49-36.81 36.73v42.31-0.43c-0.04 0.8-0.08 1.6-0.1 2.44-1.03 17.1-15.76 27.31-29.55 27.31m29.55-26.15h-0.05 0.05M456.64 961c32.61 0 63.33-24.97 65.02-61.62v-0.11c0-1.02 0.11-2.04 0.11-3.06v-42.34c0-0.68 0.55-1.22 1.22-1.23 22.94-0.2 45.33-2.91 66.96-7.71 149.98-33.47 262.63-171.19 262.63-336.82 0-27.34-3.06-52.64-8.4-77.26-0.56-2.59-1.14-5.17-1.75-7.75-2.26-9.54-15.32-10.78-19.32-1.82-2.55 5.72-5.25 11.37-8.09 16.95-55.4 108.99-164.78 184.18-292.09 184.69-0.7 0-1.28-0.57-1.28-1.28v-40.02c0-1.02 0-2.04-0.11-3.06v-0.11c-1.69-36.7-32.37-61.69-64.95-61.69-13.45 0-27.22 4.25-39.42 13.7L213.65 687.8c-33.58 25.98-33.58 76.58 0 102.55l203.64 157.01c12.17 9.41 25.93 13.64 39.35 13.64z"
        fill="#231815" p-id="68649"></path>
    <path
        d="M829.62 448.66c3.51 19.93 5.23 39.5 5.23 59.45 0 152.97-104.62 287.35-248.76 319.51-21.34 4.73-43.02 7.19-64.4 7.28-9.76 0.05-17.65 7.98-17.65 17.74v43.57c-0.07 1.38-0.11 2.22-0.11 3.06-1.27 27.28-25.04 44-47.28 44-10.23 0-20.1-3.44-28.52-9.95l-203.65-157c-11.6-8.99-18.28-22.56-18.28-37.23s6.68-28.25 18.3-37.25L428.02 544.5c8.45-6.54 18.32-10 28.57-10 22.21 0 45.95 16.75 47.23 44.76 0.01 0.39 0.04 0.88 0.09 1.27v42.39c0 9.8 7.94 17.74 17.74 17.74 128.91-0.01 246.66-73.5 307.97-192z"
        fill="#B5D3EB" p-id="68650"></path>
</svg>