<svg class="icon" style="width: 1em;height: 1em;vertical-align: middle;fill: currentColor;overflow: hidden;" viewBox="0 0 1024 1024" version="1.1" xmlns="http://www.w3.org/2000/svg" p-id="6306"><path d="M170.666667 256a128 128 0 0 1 128-128h42.666666v85.333333H298.666667a42.666667 42.666667 0 0 0-42.666667 42.666667v170.666667a128 128 0 0 1-128 128v-85.333334a42.666667 42.666667 0 0 0 42.666667-42.666666V256z" fill="#000000" p-id="6307"></path><path d="M256 597.333333a128 128 0 0 0-128-128H85.333333v85.333334h42.666667a42.666667 42.666667 0 0 1 42.666667 42.666666v170.666667a128 128 0 0 0 128 128v-85.333333a42.666667 42.666667 0 0 1-42.666667-42.666667v-170.666667zM853.333333 256a128 128 0 0 0-128-128h-42.666666v85.333333h42.666666a42.666667 42.666667 0 0 1 42.666667 42.666667v170.666667a128 128 0 0 0 128 128v-85.333334a42.666667 42.666667 0 0 1-42.666667-42.666666V256z" fill="#000000" p-id="6308"></path><path d="M768 597.333333a128 128 0 0 1 128-128h42.666667v85.333334h-42.666667a42.666667 42.666667 0 0 0-42.666667 42.666666v170.666667a128 128 0 0 1-128 128v-85.333333a42.666667 42.666667 0 0 0 42.666667-42.666667v-170.666667z" fill="#000000" p-id="6309"></path></svg>