<svg class="icon" style="width: 1em;height: 1em;vertical-align: middle;fill: currentColor;overflow: hidden;" viewBox="0 0 1024 1024" version="1.1" xmlns="http://www.w3.org/2000/svg" p-id="3641"><path d="M568.32 753.706667c0 125.696-103.168 227.626667-230.4 227.626666s-230.4-101.930667-230.4-227.626666 103.125333-227.626667 230.4-227.626667c127.232 0 230.4 101.930667 230.4 227.626667" fill="#FF6600" p-id="3642"></path><path d="M1024 435.029333c0 125.696-103.125333 227.626667-230.4 227.626667-127.232 0-230.4-101.930667-230.4-227.626667s103.168-227.626667 230.4-227.626666c127.274667 0 230.4 101.930667 230.4 227.626666" fill="#FFCC00" p-id="3643"></path><path d="M460.8 429.994667c0 125.696-103.168 227.626667-230.4 227.626666S0 555.648 0 429.994667C0 304.213333 103.168 202.325333 230.4 202.325333s230.4 101.973333 230.4 227.669334" fill="#0089CC" p-id="3644"></path><path d="M921.6 753.706667c0 125.696-103.125333 227.626667-230.4 227.626666-127.232 0-230.4-101.930667-230.4-227.626666s103.168-227.626667 230.4-227.626667c127.274667 0 230.4 101.930667 230.4 227.626667" fill="#009939" p-id="3645"></path><path d="M742.4 227.626667c0 125.696-103.168 227.626667-230.4 227.626666S281.6 353.322667 281.6 227.626667 384.768 0 512 0s230.4 101.930667 230.4 227.626667" fill="#BF0000" p-id="3646"></path><path d="M563.2 435.029333c0 4.778667 0.426667 9.472 0.725333 14.208 102.186667-23.296 178.474667-113.578667 178.474667-221.610666 0-4.778667-0.426667-9.514667-0.725333-14.208-102.186667 23.296-178.474667 113.578667-178.474667 221.610666" fill="#FC0007" p-id="3647"></path><path d="M593.621333 547.754667a231.338667 231.338667 0 0 0 297.6 93.269333 231.424 231.424 0 0 0-297.6-93.269333" fill="#1CD306" p-id="3648"></path><path d="M460.8 753.706667a224.853333 224.853333 0 0 0 53.76 146.048 225.024 225.024 0 0 0 53.76-146.048 225.024 225.024 0 0 0-53.76-146.048 224.853333 224.853333 0 0 0-53.76 146.048" fill="#0F7504" p-id="3649"></path><path d="M139.178667 638.976a231.722667 231.722667 0 0 0 91.221333 18.645333 230.613333 230.613333 0 0 0 198.741333-112.896 231.765333 231.765333 0 0 0-91.221333-18.645333 230.613333 230.613333 0 0 0-198.741333 112.896" fill="#0C5E87" p-id="3650"></path><path d="M282.581333 208.426667a223.744 223.744 0 0 0-0.981333 19.2c0 107.946667 76.16 198.144 178.218667 221.525333 0.512-6.314667 0.981333-12.714667 0.981333-19.2 0-107.946667-76.16-198.144-178.218667-221.525333" fill="#6B0001" p-id="3651"></path><path d="M283.989333 725.546667a57.301333 57.301333 0 0 1-57.685333-56.832V346.410667c0-31.36 25.856-56.874667 57.685333-56.874667h451.925334c31.829333 0 57.685333 25.514667 57.685333 56.874667v322.304c0 31.36-25.856 56.832-57.685333 56.832H581.973333L273.066667 875.093333l46.933333-149.589333h-36.010667z" fill="#FFFFFF" p-id="3652"></path></svg>