<svg class="icon" style="width: 1em;height: 1em;vertical-align: middle;fill: currentColor;overflow: hidden;" viewBox="0 0 1024 1024" version="1.1" xmlns="http://www.w3.org/2000/svg" p-id="1439"><path d="M512 0c282.7776 0 512 229.2224 512 512s-229.2224 512-512 512S0 794.7776 0 512 229.2224 0 512 0z m0 71.424a440.576 440.576 0 1 0 0 881.152 440.576 440.576 0 0 0 0-881.152zM512 583.68a186.2144 186.2144 0 0 1 184.6784 162.56 34.9184 34.9184 0 1 1-69.2224 8.8064 116.3776 116.3776 0 0 0-230.9632 0.768 34.9184 34.9184 0 1 1-69.3248-8.3456 186.2144 186.2144 0 0 1 184.832-163.84z m-214.3232-262.144a71.424 71.424 0 1 1 0 142.848 71.424 71.424 0 0 1 0-142.848z m428.6464 0a71.424 71.424 0 1 1 0 142.848 71.424 71.424 0 0 1 0-142.848z" fill="#555555" p-id="1440"></path></svg>