<svg class="icon" style="width: 1em;height: 1em;vertical-align: middle;fill: currentColor;overflow: hidden;"
    viewBox="0 0 1024 1024" version="1.1" xmlns="http://www.w3.org/2000/svg" p-id="1538">
    <path
        d="M722.9 464.4L596.6 446c-11.4-1.7-21.3-8.8-26.4-19.1l-56.5-114.5c-1.2-2.4-3.3-2.8-4.5-2.8-1.2 0-3.3 0.4-4.5 2.8l-56.5 114.5c-5.1 10.3-15 17.5-26.4 19.1l-126.4 18.4c-2.7 0.4-3.7 2.3-4 3.4-0.4 1.1-0.7 3.2 1.3 5.1l91.5 89.1c8.3 8 12 19.6 10.1 31l-21.6 125.9c-0.5 2.7 1 4.2 2 4.9s2.9 1.6 5.3 0.4l113-59.4c10.2-5.4 22.4-5.4 32.6 0l113 59.4c2.4 1.3 4.3 0.3 5.3-0.4 0.9-0.7 2.4-2.2 2-4.9L624.2 593c-1.9-11.4 1.8-22.9 10.1-31l91.5-89.1c1.9-1.9 1.6-4 1.3-5.1s-1.5-3-4.2-3.4z"
        fill="#2680F0" p-id="1539"></path>
    <path d="M199 690.1m-10 0a10 10 0 1 0 20 0 10 10 0 1 0-20 0Z" fill="#FFFFFF" p-id="1540"></path>
    <path
        d="M265.7 815.7h-47.4c-6.6 0-12-5.4-12-12v-81c0-4.6-3.9-8.3-8.5-8-4.3 0.3-7.5 4-7.5 8.3v80.7c0 15.5 12.5 28 28 28h47.5c5.3 0 9.3-5.1 7.6-10.6-1.1-3.3-4.3-5.4-7.7-5.4z"
        fill="#FFFFFF" p-id="1541"></path>
    <path
        d="M867.2 97.8h-716c-19.3 0-35 15.7-35 35v760c0 19.3 15.7 35 35 35h716c19.3 0 35-15.7 35-35v-760c0-19.3-15.7-35-35-35zM265.7 831.7h-47.5c-15.5 0-28-12.5-28-28V723c0-4.3 3.2-8 7.5-8.3 4.7-0.3 8.5 3.4 8.5 8v81c0 6.6 5.4 12 12 12h47.4c3.4 0 6.6 2.1 7.6 5.4 1.8 5.5-2.2 10.6-7.5 10.6zM189 690.1c0-5.5 4.5-10 10-10s10 4.5 10 10-4.5 10-10 10c-5.6 0-10-4.5-10-10z m557.7-195.7l-91.5 89.1c-1.2 1.1-1.7 2.8-1.4 4.4l21.6 125.9c2.3 13.2-3.1 26.3-13.9 34.2-6.1 4.5-13.3 6.7-20.5 6.7-5.6 0-11.2-1.3-16.3-4.1l-113-59.4c-1.5-0.8-3.2-0.8-4.7 0l-113 59.4c-11.9 6.2-26 5.2-36.9-2.7-10.9-7.9-16.2-21-13.9-34.2l21.6-125.9c0.3-1.6-0.3-3.3-1.4-4.4l-91.5-89.1c-9.6-9.4-13-23.1-8.9-35.9 4.1-12.8 15-21.9 28.3-23.8l126.4-18.4c1.6-0.2 3-1.3 3.8-2.7L478 299c5.9-12 18-19.5 31.4-19.5 13.4 0 25.4 7.5 31.4 19.5l56.5 114.5c0.7 1.5 2.1 2.5 3.8 2.7l126.4 18.4c13.3 1.9 24.1 11.1 28.3 23.8 3.9 12.9 0.5 26.6-9.1 36z m125.5 398.4c0 2.8-2.2 5-5 5h-53.8V223.4c0-11-9-20-20-20H149.2c-1 0-2 0.1-3 0.2v-70.9c0-2.8 2.2-5 5-5h716c2.8 0 5 2.2 5 5v760.1z"
        fill="#2680F0" p-id="1542"></path>
    <path
        d="M727.3 434.7l-126.4-18.4c-1.6-0.2-3-1.3-3.8-2.7l-56.5-114.5c-5.9-12-18-19.5-31.4-19.5-13.4 0-25.4 7.5-31.4 19.5l-56.5 114.5c-0.7 1.5-2.1 2.5-3.8 2.7l-126.4 18.4c-13.3 1.9-24.1 11.1-28.3 23.8-4.1 12.8-0.8 26.5 8.9 35.9l91.5 89.1c1.2 1.1 1.7 2.8 1.4 4.4L343 713.8c-2.3 13.2 3.1 26.3 13.9 34.2 10.9 7.9 25 8.9 36.9 2.7l113-59.4c1.5-0.8 3.2-0.8 4.7 0l113 59.4c5.2 2.7 10.8 4.1 16.3 4.1 7.2 0 14.4-2.3 20.5-6.7 10.9-7.9 16.2-21 13.9-34.2L653.6 588c-0.3-1.6 0.3-3.3 1.4-4.4l91.5-89.1c9.6-9.4 13-23.1 8.9-35.9-4-12.9-14.9-22-28.1-23.9z m-1.6 38.2L634.3 562c-8.3 8-12 19.6-10.1 31l21.6 125.9c0.5 2.7-1 4.2-2 4.9-0.9 0.7-2.9 1.6-5.3 0.4l-113-59.4c-10.2-5.4-22.4-5.4-32.6 0l-113 59.4c-2.4 1.3-4.3 0.3-5.3-0.4s-2.4-2.2-2-4.9L394.2 593c1.9-11.4-1.8-22.9-10.1-31l-91.5-89.1c-1.9-1.9-1.6-4-1.3-5.1 0.4-1.1 1.4-3 4-3.4L421.8 446c11.4-1.7 21.3-8.8 26.4-19.1l56.5-114.5c1.2-2.4 3.3-2.8 4.5-2.8 1.2 0 3.3 0.4 4.5 2.8l56.5 114.5c5.1 10.3 15 17.5 26.4 19.1L723 464.4c2.7 0.4 3.7 2.3 4 3.4s0.6 3.2-1.3 5.1z"
        fill="#FFFFFF" p-id="1543"></path>
</svg>