<svg class="icon" style="width: 1em;height: 1em;vertical-align: middle;fill: currentColor;overflow: hidden;" viewBox="0 0 1024 1024" version="1.1" xmlns="http://www.w3.org/2000/svg" p-id="1515"><path d="M512 112A400 400 0 1 1 112 512 400 400 0 0 1 512 112z m0-48a448 448 0 1 0 316.8 131.2A448 448 0 0 0 512 64z" fill="" p-id="1516"></path><path d="M776.96 727.04l-106.4-106.4 4.8-6.56A221.44 221.44 0 0 0 720 480a224 224 0 1 0-224 224 221.44 221.44 0 0 0 134.08-44.64l6.56-4.8 106.4 106.4a24 24 0 0 0 33.92-33.92z m-155.2-121.28l-20.48 16a176 176 0 1 1 35.68-35.68z" fill="#0070FF" p-id="1517"></path></svg>